<?xml version="1.0" encoding="utf-8" standalone="no"?>
<!DOCTYPE svg PUBLIC "-//W3C//DTD SVG 1.1//EN"
  "http://www.w3.org/Graphics/SVG/1.1/DTD/svg11.dtd">
<svg xmlns:xlink="http://www.w3.org/1999/xlink" width="460.8pt" height="345.6pt" viewBox="0 0 460.8 345.6" xmlns="http://www.w3.org/2000/svg" version="1.1">
 <metadata>
  <rdf:RDF xmlns:dc="http://purl.org/dc/elements/1.1/" xmlns:cc="http://creativecommons.org/ns#" xmlns:rdf="http://www.w3.org/1999/02/22-rdf-syntax-ns#">
   <cc:Work>
    <dc:type rdf:resource="http://purl.org/dc/dcmitype/StillImage"/>
    <dc:date>2025-02-20T13:50:10.945750</dc:date>
    <dc:format>image/svg+xml</dc:format>
    <dc:creator>
     <cc:Agent>
      <dc:title>Matplotlib v3.10.0, https://matplotlib.org/</dc:title>
     </cc:Agent>
    </dc:creator>
   </cc:Work>
  </rdf:RDF>
 </metadata>
 <defs>
  <style type="text/css">*{stroke-linejoin: round; stroke-linecap: butt}</style>
 </defs>
 <g id="figure_1">
  <g id="patch_1">
   <path d="M 0 345.6 
L 460.8 345.6 
L 460.8 0 
L 0 0 
z
" style="fill: #ffffff"/>
  </g>
  <g id="axes_1">
   <g id="patch_2">
    <path d="M 57.6 307.584 
L 414.72 307.584 
L 414.72 41.472 
L 57.6 41.472 
z
" style="fill: #ffffff"/>
   </g>
   <g id="patch_3">
    <path d="M 73.832727 426721.022819 
L 77.079273 426721.022819 
L 77.079273 155.795132 
L 73.832727 155.795132 
z
" clip-path="url(#p52723c7858)" style="fill: #1f77b4"/>
   </g>
   <g id="patch_4">
    <path d="M 77.079273 426721.022819 
L 80.325818 426721.022819 
L 80.325818 90.763022 
L 77.079273 90.763022 
z
" clip-path="url(#p52723c7858)" style="fill: #1f77b4"/>
   </g>
   <g id="patch_5">
    <path d="M 80.325818 426721.022819 
L 83.572364 426721.022819 
L 83.572364 64.878929 
L 80.325818 64.878929 
z
" clip-path="url(#p52723c7858)" style="fill: #1f77b4"/>
   </g>
   <g id="patch_6">
    <path d="M 83.572364 426721.022819 
L 86.818909 426721.022819 
L 86.818909 59.107984 
L 83.572364 59.107984 
z
" clip-path="url(#p52723c7858)" style="fill: #1f77b4"/>
   </g>
   <g id="patch_7">
    <path d="M 86.818909 426721.022819 
L 90.065455 426721.022819 
L 90.065455 59.077139 
L 86.818909 59.077139 
z
" clip-path="url(#p52723c7858)" style="fill: #1f77b4"/>
   </g>
   <g id="patch_8">
    <path d="M 90.065455 426721.022819 
L 93.312 426721.022819 
L 93.312 55.966029 
L 90.065455 55.966029 
z
" clip-path="url(#p52723c7858)" style="fill: #1f77b4"/>
   </g>
   <g id="patch_9">
    <path d="M 93.312 426721.022819 
L 96.558545 426721.022819 
L 96.558545 55.295936 
L 93.312 55.295936 
z
" clip-path="url(#p52723c7858)" style="fill: #1f77b4"/>
   </g>
   <g id="patch_10">
    <path d="M 96.558545 426721.022819 
L 99.805091 426721.022819 
L 99.805091 55.639622 
L 96.558545 55.639622 
z
" clip-path="url(#p52723c7858)" style="fill: #1f77b4"/>
   </g>
   <g id="patch_11">
    <path d="M 99.805091 426721.022819 
L 103.051636 426721.022819 
L 103.051636 55.680907 
L 99.805091 55.680907 
z
" clip-path="url(#p52723c7858)" style="fill: #1f77b4"/>
   </g>
   <g id="patch_12">
    <path d="M 103.051636 426721.022819 
L 106.298182 426721.022819 
L 106.298182 53.568 
L 103.051636 53.568 
z
" clip-path="url(#p52723c7858)" style="fill: #1f77b4"/>
   </g>
   <g id="patch_13">
    <path d="M 106.298182 426721.022819 
L 109.544727 426721.022819 
L 109.544727 56.54313 
L 106.298182 56.54313 
z
" clip-path="url(#p52723c7858)" style="fill: #1f77b4"/>
   </g>
   <g id="patch_14">
    <path d="M 109.544727 426721.022819 
L 112.791273 426721.022819 
L 112.791273 59.990651 
L 109.544727 59.990651 
z
" clip-path="url(#p52723c7858)" style="fill: #1f77b4"/>
   </g>
   <g id="patch_15">
    <path d="M 112.791273 426721.022819 
L 116.037818 426721.022819 
L 116.037818 64.053241 
L 112.791273 64.053241 
z
" clip-path="url(#p52723c7858)" style="fill: #1f77b4"/>
   </g>
   <g id="patch_16">
    <path d="M 116.037818 426721.022819 
L 119.284364 426721.022819 
L 119.284364 71.795197 
L 116.037818 71.795197 
z
" clip-path="url(#p52723c7858)" style="fill: #1f77b4"/>
   </g>
   <g id="patch_17">
    <path d="M 119.284364 426721.022819 
L 122.530909 426721.022819 
L 122.530909 76.141919 
L 119.284364 76.141919 
z
" clip-path="url(#p52723c7858)" style="fill: #1f77b4"/>
   </g>
   <g id="patch_18">
    <path d="M 122.530909 426721.022819 
L 125.777455 426721.022819 
L 125.777455 84.689329 
L 122.530909 84.689329 
z
" clip-path="url(#p52723c7858)" style="fill: #1f77b4"/>
   </g>
   <g id="patch_19">
    <path d="M 125.777455 426721.022819 
L 129.024 426721.022819 
L 129.024 90.060141 
L 125.777455 90.060141 
z
" clip-path="url(#p52723c7858)" style="fill: #1f77b4"/>
   </g>
   <g id="patch_20">
    <path d="M 129.024 426721.022819 
L 132.270545 426721.022819 
L 132.270545 98.430323 
L 129.024 98.430323 
z
" clip-path="url(#p52723c7858)" style="fill: #1f77b4"/>
   </g>
   <g id="patch_21">
    <path d="M 132.270545 426721.022819 
L 135.517091 426721.022819 
L 135.517091 103.205333 
L 132.270545 103.205333 
z
" clip-path="url(#p52723c7858)" style="fill: #1f77b4"/>
   </g>
   <g id="patch_22">
    <path d="M 135.517091 426721.022819 
L 138.763636 426721.022819 
L 138.763636 109.228278 
L 135.517091 109.228278 
z
" clip-path="url(#p52723c7858)" style="fill: #1f77b4"/>
   </g>
   <g id="patch_23">
    <path d="M 138.763636 426721.022819 
L 142.010182 426721.022819 
L 142.010182 113.875881 
L 138.763636 113.875881 
z
" clip-path="url(#p52723c7858)" style="fill: #1f77b4"/>
   </g>
   <g id="patch_24">
    <path d="M 142.010182 426721.022819 
L 145.256727 426721.022819 
L 145.256727 120.367592 
L 142.010182 120.367592 
z
" clip-path="url(#p52723c7858)" style="fill: #1f77b4"/>
   </g>
   <g id="patch_25">
    <path d="M 145.256727 426721.022819 
L 148.503273 426721.022819 
L 148.503273 123.756977 
L 145.256727 123.756977 
z
" clip-path="url(#p52723c7858)" style="fill: #1f77b4"/>
   </g>
   <g id="patch_26">
    <path d="M 148.503273 426721.022819 
L 151.749818 426721.022819 
L 151.749818 128.835944 
L 148.503273 128.835944 
z
" clip-path="url(#p52723c7858)" style="fill: #1f77b4"/>
   </g>
   <g id="patch_27">
    <path d="M 151.749818 426721.022819 
L 154.996364 426721.022819 
L 154.996364 137.497457 
L 151.749818 137.497457 
z
" clip-path="url(#p52723c7858)" style="fill: #1f77b4"/>
   </g>
   <g id="patch_28">
    <path d="M 154.996364 426721.022819 
L 158.242909 426721.022819 
L 158.242909 141.189585 
L 154.996364 141.189585 
z
" clip-path="url(#p52723c7858)" style="fill: #1f77b4"/>
   </g>
   <g id="patch_29">
    <path d="M 158.242909 426721.022819 
L 161.489455 426721.022819 
L 161.489455 147.841074 
L 158.242909 147.841074 
z
" clip-path="url(#p52723c7858)" style="fill: #1f77b4"/>
   </g>
   <g id="patch_30">
    <path d="M 161.489455 426721.022819 
L 164.736 426721.022819 
L 164.736 153.144383 
L 161.489455 153.144383 
z
" clip-path="url(#p52723c7858)" style="fill: #1f77b4"/>
   </g>
   <g id="patch_31">
    <path d="M 164.736 426721.022819 
L 167.982545 426721.022819 
L 167.982545 159.424443 
L 164.736 159.424443 
z
" clip-path="url(#p52723c7858)" style="fill: #1f77b4"/>
   </g>
   <g id="patch_32">
    <path d="M 167.982545 426721.022819 
L 171.229091 426721.022819 
L 171.229091 163.622801 
L 167.982545 163.622801 
z
" clip-path="url(#p52723c7858)" style="fill: #1f77b4"/>
   </g>
   <g id="patch_33">
    <path d="M 171.229091 426721.022819 
L 174.475636 426721.022819 
L 174.475636 170.238423 
L 171.229091 170.238423 
z
" clip-path="url(#p52723c7858)" style="fill: #1f77b4"/>
   </g>
   <g id="patch_34">
    <path d="M 174.475636 426721.022819 
L 177.722182 426721.022819 
L 177.722182 174.885216 
L 174.475636 174.885216 
z
" clip-path="url(#p52723c7858)" style="fill: #1f77b4"/>
   </g>
   <g id="patch_35">
    <path d="M 177.722182 426721.022819 
L 180.968727 426721.022819 
L 180.968727 178.188498 
L 177.722182 178.188498 
z
" clip-path="url(#p52723c7858)" style="fill: #1f77b4"/>
   </g>
   <g id="patch_36">
    <path d="M 180.968727 426721.022819 
L 184.215273 426721.022819 
L 184.215273 180.454724 
L 180.968727 180.454724 
z
" clip-path="url(#p52723c7858)" style="fill: #1f77b4"/>
   </g>
   <g id="patch_37">
    <path d="M 184.215273 426721.022819 
L 187.461818 426721.022819 
L 187.461818 185.818185 
L 184.215273 185.818185 
z
" clip-path="url(#p52723c7858)" style="fill: #1f77b4"/>
   </g>
   <g id="patch_38">
    <path d="M 187.461818 426721.022819 
L 190.708364 426721.022819 
L 190.708364 188.144077 
L 187.461818 188.144077 
z
" clip-path="url(#p52723c7858)" style="fill: #1f77b4"/>
   </g>
   <g id="patch_39">
    <path d="M 190.708364 426721.022819 
L 193.954909 426721.022819 
L 193.954909 191.650027 
L 190.708364 191.650027 
z
" clip-path="url(#p52723c7858)" style="fill: #1f77b4"/>
   </g>
   <g id="patch_40">
    <path d="M 193.954909 426721.022819 
L 197.201455 426721.022819 
L 197.201455 192.903173 
L 193.954909 192.903173 
z
" clip-path="url(#p52723c7858)" style="fill: #1f77b4"/>
   </g>
   <g id="patch_41">
    <path d="M 197.201455 426721.022819 
L 200.448 426721.022819 
L 200.448 195.855831 
L 197.201455 195.855831 
z
" clip-path="url(#p52723c7858)" style="fill: #1f77b4"/>
   </g>
   <g id="patch_42">
    <path d="M 200.448 426721.022819 
L 203.694545 426721.022819 
L 203.694545 199.108081 
L 200.448 199.108081 
z
" clip-path="url(#p52723c7858)" style="fill: #1f77b4"/>
   </g>
   <g id="patch_43">
    <path d="M 203.694545 426721.022819 
L 206.941091 426721.022819 
L 206.941091 201.563466 
L 203.694545 201.563466 
z
" clip-path="url(#p52723c7858)" style="fill: #1f77b4"/>
   </g>
   <g id="patch_44">
    <path d="M 206.941091 426721.022819 
L 210.187636 426721.022819 
L 210.187636 207.616575 
L 206.941091 207.616575 
z
" clip-path="url(#p52723c7858)" style="fill: #1f77b4"/>
   </g>
   <g id="patch_45">
    <path d="M 210.187636 426721.022819 
L 213.434182 426721.022819 
L 213.434182 208.279881 
L 210.187636 208.279881 
z
" clip-path="url(#p52723c7858)" style="fill: #1f77b4"/>
   </g>
   <g id="patch_46">
    <path d="M 213.434182 426721.022819 
L 216.680727 426721.022819 
L 216.680727 208.778142 
L 213.434182 208.778142 
z
" clip-path="url(#p52723c7858)" style="fill: #1f77b4"/>
   </g>
   <g id="patch_47">
    <path d="M 216.680727 426721.022819 
L 219.927273 426721.022819 
L 219.927273 210.45624 
L 216.680727 210.45624 
z
" clip-path="url(#p52723c7858)" style="fill: #1f77b4"/>
   </g>
   <g id="patch_48">
    <path d="M 219.927273 426721.022819 
L 223.173818 426721.022819 
L 223.173818 211.305855 
L 219.927273 211.305855 
z
" clip-path="url(#p52723c7858)" style="fill: #1f77b4"/>
   </g>
   <g id="patch_49">
    <path d="M 223.173818 426721.022819 
L 226.420364 426721.022819 
L 226.420364 213.53789 
L 223.173818 213.53789 
z
" clip-path="url(#p52723c7858)" style="fill: #1f77b4"/>
   </g>
   <g id="patch_50">
    <path d="M 226.420364 426721.022819 
L 229.666909 426721.022819 
L 229.666909 216.589549 
L 226.420364 216.589549 
z
" clip-path="url(#p52723c7858)" style="fill: #1f77b4"/>
   </g>
   <g id="patch_51">
    <path d="M 229.666909 426721.022819 
L 232.913455 426721.022819 
L 232.913455 217.766135 
L 229.666909 217.766135 
z
" clip-path="url(#p52723c7858)" style="fill: #1f77b4"/>
   </g>
   <g id="patch_52">
    <path d="M 232.913455 426721.022819 
L 236.16 426721.022819 
L 236.16 219.123882 
L 232.913455 219.123882 
z
" clip-path="url(#p52723c7858)" style="fill: #1f77b4"/>
   </g>
   <g id="patch_53">
    <path d="M 236.16 426721.022819 
L 239.406545 426721.022819 
L 239.406545 221.612272 
L 236.16 221.612272 
z
" clip-path="url(#p52723c7858)" style="fill: #1f77b4"/>
   </g>
   <g id="patch_54">
    <path d="M 239.406545 426721.022819 
L 242.653091 426721.022819 
L 242.653091 223.548748 
L 239.406545 223.548748 
z
" clip-path="url(#p52723c7858)" style="fill: #1f77b4"/>
   </g>
   <g id="patch_55">
    <path d="M 242.653091 426721.022819 
L 245.899636 426721.022819 
L 245.899636 225.481579 
L 242.653091 225.481579 
z
" clip-path="url(#p52723c7858)" style="fill: #1f77b4"/>
   </g>
   <g id="patch_56">
    <path d="M 245.899636 426721.022819 
L 249.146182 426721.022819 
L 249.146182 230.035298 
L 245.899636 230.035298 
z
" clip-path="url(#p52723c7858)" style="fill: #1f77b4"/>
   </g>
   <g id="patch_57">
    <path d="M 249.146182 426721.022819 
L 252.392727 426721.022819 
L 252.392727 230.138095 
L 249.146182 230.138095 
z
" clip-path="url(#p52723c7858)" style="fill: #1f77b4"/>
   </g>
   <g id="patch_58">
    <path d="M 252.392727 426721.022819 
L 255.639273 426721.022819 
L 255.639273 230.763203 
L 252.392727 230.763203 
z
" clip-path="url(#p52723c7858)" style="fill: #1f77b4"/>
   </g>
   <g id="patch_59">
    <path d="M 255.639273 426721.022819 
L 258.885818 426721.022819 
L 258.885818 232.921122 
L 255.639273 232.921122 
z
" clip-path="url(#p52723c7858)" style="fill: #1f77b4"/>
   </g>
   <g id="patch_60">
    <path d="M 258.885818 426721.022819 
L 262.132364 426721.022819 
L 262.132364 235.816269 
L 258.885818 235.816269 
z
" clip-path="url(#p52723c7858)" style="fill: #1f77b4"/>
   </g>
   <g id="patch_61">
    <path d="M 262.132364 426721.022819 
L 265.378909 426721.022819 
L 265.378909 237.192635 
L 262.132364 237.192635 
z
" clip-path="url(#p52723c7858)" style="fill: #1f77b4"/>
   </g>
   <g id="patch_62">
    <path d="M 265.378909 426721.022819 
L 268.625455 426721.022819 
L 268.625455 238.449484 
L 265.378909 238.449484 
z
" clip-path="url(#p52723c7858)" style="fill: #1f77b4"/>
   </g>
   <g id="patch_63">
    <path d="M 268.625455 426721.022819 
L 271.872 426721.022819 
L 271.872 240.040175 
L 268.625455 240.040175 
z
" clip-path="url(#p52723c7858)" style="fill: #1f77b4"/>
   </g>
   <g id="patch_64">
    <path d="M 271.872 426721.022819 
L 275.118545 426721.022819 
L 275.118545 243.972871 
L 271.872 243.972871 
z
" clip-path="url(#p52723c7858)" style="fill: #1f77b4"/>
   </g>
   <g id="patch_65">
    <path d="M 275.118545 426721.022819 
L 278.365091 426721.022819 
L 278.365091 245.273124 
L 275.118545 245.273124 
z
" clip-path="url(#p52723c7858)" style="fill: #1f77b4"/>
   </g>
   <g id="patch_66">
    <path d="M 278.365091 426721.022819 
L 281.611636 426721.022819 
L 281.611636 244.646784 
L 278.365091 244.646784 
z
" clip-path="url(#p52723c7858)" style="fill: #1f77b4"/>
   </g>
   <g id="patch_67">
    <path d="M 281.611636 426721.022819 
L 284.858182 426721.022819 
L 284.858182 246.009774 
L 281.611636 246.009774 
z
" clip-path="url(#p52723c7858)" style="fill: #1f77b4"/>
   </g>
   <g id="patch_68">
    <path d="M 284.858182 426721.022819 
L 288.104727 426721.022819 
L 288.104727 248.491976 
L 284.858182 248.491976 
z
" clip-path="url(#p52723c7858)" style="fill: #1f77b4"/>
   </g>
   <g id="patch_69">
    <path d="M 288.104727 426721.022819 
L 291.351273 426721.022819 
L 291.351273 245.280822 
L 288.104727 245.280822 
z
" clip-path="url(#p52723c7858)" style="fill: #1f77b4"/>
   </g>
   <g id="patch_70">
    <path d="M 291.351273 426721.022819 
L 294.597818 426721.022819 
L 294.597818 249.025447 
L 291.351273 249.025447 
z
" clip-path="url(#p52723c7858)" style="fill: #1f77b4"/>
   </g>
   <g id="patch_71">
    <path d="M 294.597818 426721.022819 
L 297.844364 426721.022819 
L 297.844364 249.218032 
L 294.597818 249.218032 
z
" clip-path="url(#p52723c7858)" style="fill: #1f77b4"/>
   </g>
   <g id="patch_72">
    <path d="M 297.844364 426721.022819 
L 301.090909 426721.022819 
L 301.090909 248.884084 
L 297.844364 248.884084 
z
" clip-path="url(#p52723c7858)" style="fill: #1f77b4"/>
   </g>
   <g id="patch_73">
    <path d="M 301.090909 426721.022819 
L 304.337455 426721.022819 
L 304.337455 252.499124 
L 301.090909 252.499124 
z
" clip-path="url(#p52723c7858)" style="fill: #1f77b4"/>
   </g>
   <g id="patch_74">
    <path d="M 304.337455 426721.022819 
L 307.584 426721.022819 
L 307.584 256.259998 
L 304.337455 256.259998 
z
" clip-path="url(#p52723c7858)" style="fill: #1f77b4"/>
   </g>
   <g id="patch_75">
    <path d="M 307.584 426721.022819 
L 310.830545 426721.022819 
L 310.830545 256.615778 
L 307.584 256.615778 
z
" clip-path="url(#p52723c7858)" style="fill: #1f77b4"/>
   </g>
   <g id="patch_76">
    <path d="M 310.830545 426721.022819 
L 314.077091 426721.022819 
L 314.077091 259.445437 
L 310.830545 259.445437 
z
" clip-path="url(#p52723c7858)" style="fill: #1f77b4"/>
   </g>
   <g id="patch_77">
    <path d="M 314.077091 426721.022819 
L 317.323636 426721.022819 
L 317.323636 263.947623 
L 314.077091 263.947623 
z
" clip-path="url(#p52723c7858)" style="fill: #1f77b4"/>
   </g>
   <g id="patch_78">
    <path d="M 317.323636 426721.022819 
L 320.570182 426721.022819 
L 320.570182 263.263124 
L 317.323636 263.263124 
z
" clip-path="url(#p52723c7858)" style="fill: #1f77b4"/>
   </g>
   <g id="patch_79">
    <path d="M 320.570182 426721.022819 
L 323.816727 426721.022819 
L 323.816727 265.676522 
L 320.570182 265.676522 
z
" clip-path="url(#p52723c7858)" style="fill: #1f77b4"/>
   </g>
   <g id="patch_80">
    <path d="M 323.816727 426721.022819 
L 327.063273 426721.022819 
L 327.063273 267.005573 
L 323.816727 267.005573 
z
" clip-path="url(#p52723c7858)" style="fill: #1f77b4"/>
   </g>
   <g id="patch_81">
    <path d="M 327.063273 426721.022819 
L 330.309818 426721.022819 
L 330.309818 268.9954 
L 327.063273 268.9954 
z
" clip-path="url(#p52723c7858)" style="fill: #1f77b4"/>
   </g>
   <g id="patch_82">
    <path d="M 330.309818 426721.022819 
L 333.556364 426721.022819 
L 333.556364 269.486354 
L 330.309818 269.486354 
z
" clip-path="url(#p52723c7858)" style="fill: #1f77b4"/>
   </g>
   <g id="patch_83">
    <path d="M 333.556364 426721.022819 
L 336.802909 426721.022819 
L 336.802909 274.428595 
L 333.556364 274.428595 
z
" clip-path="url(#p52723c7858)" style="fill: #1f77b4"/>
   </g>
   <g id="patch_84">
    <path d="M 336.802909 426721.022819 
L 340.049455 426721.022819 
L 340.049455 273.484207 
L 336.802909 273.484207 
z
" clip-path="url(#p52723c7858)" style="fill: #1f77b4"/>
   </g>
   <g id="patch_85">
    <path d="M 340.049455 426721.022819 
L 343.296 426721.022819 
L 343.296 273.717605 
L 340.049455 273.717605 
z
" clip-path="url(#p52723c7858)" style="fill: #1f77b4"/>
   </g>
   <g id="patch_86">
    <path d="M 343.296 426721.022819 
L 346.542545 426721.022819 
L 346.542545 272.308255 
L 343.296 272.308255 
z
" clip-path="url(#p52723c7858)" style="fill: #1f77b4"/>
   </g>
   <g id="patch_87">
    <path d="M 346.542545 426721.022819 
L 349.789091 426721.022819 
L 349.789091 275.581895 
L 346.542545 275.581895 
z
" clip-path="url(#p52723c7858)" style="fill: #1f77b4"/>
   </g>
   <g id="patch_88">
    <path d="M 349.789091 426721.022819 
L 353.035636 426721.022819 
L 353.035636 276.464165 
L 349.789091 276.464165 
z
" clip-path="url(#p52723c7858)" style="fill: #1f77b4"/>
   </g>
   <g id="patch_89">
    <path d="M 353.035636 426721.022819 
L 356.282182 426721.022819 
L 356.282182 277.864428 
L 353.035636 277.864428 
z
" clip-path="url(#p52723c7858)" style="fill: #1f77b4"/>
   </g>
   <g id="patch_90">
    <path d="M 356.282182 426721.022819 
L 359.528727 426721.022819 
L 359.528727 279.99426 
L 356.282182 279.99426 
z
" clip-path="url(#p52723c7858)" style="fill: #1f77b4"/>
   </g>
   <g id="patch_91">
    <path d="M 359.528727 426721.022819 
L 362.775273 426721.022819 
L 362.775273 279.048738 
L 359.528727 279.048738 
z
" clip-path="url(#p52723c7858)" style="fill: #1f77b4"/>
   </g>
   <g id="patch_92">
    <path d="M 362.775273 426721.022819 
L 366.021818 426721.022819 
L 366.021818 278.766948 
L 362.775273 278.766948 
z
" clip-path="url(#p52723c7858)" style="fill: #1f77b4"/>
   </g>
   <g id="patch_93">
    <path d="M 366.021818 426721.022819 
L 369.268364 426721.022819 
L 369.268364 280.604001 
L 366.021818 280.604001 
z
" clip-path="url(#p52723c7858)" style="fill: #1f77b4"/>
   </g>
   <g id="patch_94">
    <path d="M 369.268364 426721.022819 
L 372.514909 426721.022819 
L 372.514909 282.144286 
L 369.268364 282.144286 
z
" clip-path="url(#p52723c7858)" style="fill: #1f77b4"/>
   </g>
   <g id="patch_95">
    <path d="M 372.514909 426721.022819 
L 375.761455 426721.022819 
L 375.761455 284.614861 
L 372.514909 284.614861 
z
" clip-path="url(#p52723c7858)" style="fill: #1f77b4"/>
   </g>
   <g id="patch_96">
    <path d="M 375.761455 426721.022819 
L 379.008 426721.022819 
L 379.008 286.646269 
L 375.761455 286.646269 
z
" clip-path="url(#p52723c7858)" style="fill: #1f77b4"/>
   </g>
   <g id="patch_97">
    <path d="M 379.008 426721.022819 
L 382.254545 426721.022819 
L 382.254545 286.516241 
L 379.008 286.516241 
z
" clip-path="url(#p52723c7858)" style="fill: #1f77b4"/>
   </g>
   <g id="patch_98">
    <path d="M 382.254545 426721.022819 
L 385.501091 426721.022819 
L 385.501091 289.701689 
L 382.254545 289.701689 
z
" clip-path="url(#p52723c7858)" style="fill: #1f77b4"/>
   </g>
   <g id="patch_99">
    <path d="M 385.501091 426721.022819 
L 388.747636 426721.022819 
L 388.747636 293.83762 
L 385.501091 293.83762 
z
" clip-path="url(#p52723c7858)" style="fill: #1f77b4"/>
   </g>
   <g id="patch_100">
    <path d="M 388.747636 426721.022819 
L 391.994182 426721.022819 
L 391.994182 295.488 
L 388.747636 295.488 
z
" clip-path="url(#p52723c7858)" style="fill: #1f77b4"/>
   </g>
   <g id="patch_101">
    <path d="M 391.994182 426721.022819 
L 395.240727 426721.022819 
L 395.240727 293.537313 
L 391.994182 293.537313 
z
" clip-path="url(#p52723c7858)" style="fill: #1f77b4"/>
   </g>
   <g id="patch_102">
    <path d="M 395.240727 426721.022819 
L 398.487273 426721.022819 
L 398.487273 294.404529 
L 395.240727 294.404529 
z
" clip-path="url(#p52723c7858)" style="fill: #1f77b4"/>
   </g>
   <g id="matplotlib.axis_1">
    <g id="xtick_1">
     <g id="line2d_1">
      <defs>
       <path id="m61bf2b6851" d="M 0 0 
L 0 3.5 
" style="stroke: #000000; stroke-width: 0.8"/>
      </defs>
      <g>
       <use xlink:href="#m61bf2b6851" x="73.832727" y="307.584" style="stroke: #000000; stroke-width: 0.8"/>
      </g>
     </g>
     <g id="text_1">
      <!-- 0 -->
      <g transform="translate(70.651477 322.182437) scale(0.1 -0.1)">
       <defs>
        <path id="DejaVuSans-30" d="M 2034 4250 
Q 1547 4250 1301 3770 
Q 1056 3291 1056 2328 
Q 1056 1369 1301 889 
Q 1547 409 2034 409 
Q 2525 409 2770 889 
Q 3016 1369 3016 2328 
Q 3016 3291 2770 3770 
Q 2525 4250 2034 4250 
z
M 2034 4750 
Q 2819 4750 3233 4129 
Q 3647 3509 3647 2328 
Q 3647 1150 3233 529 
Q 2819 -91 2034 -91 
Q 1250 -91 836 529 
Q 422 1150 422 2328 
Q 422 3509 836 4129 
Q 1250 4750 2034 4750 
z
" transform="scale(0.015625)"/>
       </defs>
       <use xlink:href="#DejaVuSans-30"/>
      </g>
     </g>
    </g>
    <g id="xtick_2">
     <g id="line2d_2">
      <g>
       <use xlink:href="#m61bf2b6851" x="114.414545" y="307.584" style="stroke: #000000; stroke-width: 0.8"/>
      </g>
     </g>
     <g id="text_2">
      <!-- 250 -->
      <g transform="translate(104.870795 322.182437) scale(0.1 -0.1)">
       <defs>
        <path id="DejaVuSans-32" d="M 1228 531 
L 3431 531 
L 3431 0 
L 469 0 
L 469 531 
Q 828 903 1448 1529 
Q 2069 2156 2228 2338 
Q 2531 2678 2651 2914 
Q 2772 3150 2772 3378 
Q 2772 3750 2511 3984 
Q 2250 4219 1831 4219 
Q 1534 4219 1204 4116 
Q 875 4013 500 3803 
L 500 4441 
Q 881 4594 1212 4672 
Q 1544 4750 1819 4750 
Q 2544 4750 2975 4387 
Q 3406 4025 3406 3419 
Q 3406 3131 3298 2873 
Q 3191 2616 2906 2266 
Q 2828 2175 2409 1742 
Q 1991 1309 1228 531 
z
" transform="scale(0.015625)"/>
        <path id="DejaVuSans-35" d="M 691 4666 
L 3169 4666 
L 3169 4134 
L 1269 4134 
L 1269 2991 
Q 1406 3038 1543 3061 
Q 1681 3084 1819 3084 
Q 2600 3084 3056 2656 
Q 3513 2228 3513 1497 
Q 3513 744 3044 326 
Q 2575 -91 1722 -91 
Q 1428 -91 1123 -41 
Q 819 9 494 109 
L 494 744 
Q 775 591 1075 516 
Q 1375 441 1709 441 
Q 2250 441 2565 725 
Q 2881 1009 2881 1497 
Q 2881 1984 2565 2268 
Q 2250 2553 1709 2553 
Q 1456 2553 1204 2497 
Q 953 2441 691 2322 
L 691 4666 
z
" transform="scale(0.015625)"/>
       </defs>
       <use xlink:href="#DejaVuSans-32"/>
       <use xlink:href="#DejaVuSans-35" transform="translate(63.623047 0)"/>
       <use xlink:href="#DejaVuSans-30" transform="translate(127.246094 0)"/>
      </g>
     </g>
    </g>
    <g id="xtick_3">
     <g id="line2d_3">
      <g>
       <use xlink:href="#m61bf2b6851" x="154.996364" y="307.584" style="stroke: #000000; stroke-width: 0.8"/>
      </g>
     </g>
     <g id="text_3">
      <!-- 500 -->
      <g transform="translate(145.452614 322.182437) scale(0.1 -0.1)">
       <use xlink:href="#DejaVuSans-35"/>
       <use xlink:href="#DejaVuSans-30" transform="translate(63.623047 0)"/>
       <use xlink:href="#DejaVuSans-30" transform="translate(127.246094 0)"/>
      </g>
     </g>
    </g>
    <g id="xtick_4">
     <g id="line2d_4">
      <g>
       <use xlink:href="#m61bf2b6851" x="195.578182" y="307.584" style="stroke: #000000; stroke-width: 0.8"/>
      </g>
     </g>
     <g id="text_4">
      <!-- 750 -->
      <g transform="translate(186.034432 322.182437) scale(0.1 -0.1)">
       <defs>
        <path id="DejaVuSans-37" d="M 525 4666 
L 3525 4666 
L 3525 4397 
L 1831 0 
L 1172 0 
L 2766 4134 
L 525 4134 
L 525 4666 
z
" transform="scale(0.015625)"/>
       </defs>
       <use xlink:href="#DejaVuSans-37"/>
       <use xlink:href="#DejaVuSans-35" transform="translate(63.623047 0)"/>
       <use xlink:href="#DejaVuSans-30" transform="translate(127.246094 0)"/>
      </g>
     </g>
    </g>
    <g id="xtick_5">
     <g id="line2d_5">
      <g>
       <use xlink:href="#m61bf2b6851" x="236.16" y="307.584" style="stroke: #000000; stroke-width: 0.8"/>
      </g>
     </g>
     <g id="text_5">
      <!-- 1000 -->
      <g transform="translate(223.435 322.182437) scale(0.1 -0.1)">
       <defs>
        <path id="DejaVuSans-31" d="M 794 531 
L 1825 531 
L 1825 4091 
L 703 3866 
L 703 4441 
L 1819 4666 
L 2450 4666 
L 2450 531 
L 3481 531 
L 3481 0 
L 794 0 
L 794 531 
z
" transform="scale(0.015625)"/>
       </defs>
       <use xlink:href="#DejaVuSans-31"/>
       <use xlink:href="#DejaVuSans-30" transform="translate(63.623047 0)"/>
       <use xlink:href="#DejaVuSans-30" transform="translate(127.246094 0)"/>
       <use xlink:href="#DejaVuSans-30" transform="translate(190.869141 0)"/>
      </g>
     </g>
    </g>
    <g id="xtick_6">
     <g id="line2d_6">
      <g>
       <use xlink:href="#m61bf2b6851" x="276.741818" y="307.584" style="stroke: #000000; stroke-width: 0.8"/>
      </g>
     </g>
     <g id="text_6">
      <!-- 1250 -->
      <g transform="translate(264.016818 322.182437) scale(0.1 -0.1)">
       <use xlink:href="#DejaVuSans-31"/>
       <use xlink:href="#DejaVuSans-32" transform="translate(63.623047 0)"/>
       <use xlink:href="#DejaVuSans-35" transform="translate(127.246094 0)"/>
       <use xlink:href="#DejaVuSans-30" transform="translate(190.869141 0)"/>
      </g>
     </g>
    </g>
    <g id="xtick_7">
     <g id="line2d_7">
      <g>
       <use xlink:href="#m61bf2b6851" x="317.323636" y="307.584" style="stroke: #000000; stroke-width: 0.8"/>
      </g>
     </g>
     <g id="text_7">
      <!-- 1500 -->
      <g transform="translate(304.598636 322.182437) scale(0.1 -0.1)">
       <use xlink:href="#DejaVuSans-31"/>
       <use xlink:href="#DejaVuSans-35" transform="translate(63.623047 0)"/>
       <use xlink:href="#DejaVuSans-30" transform="translate(127.246094 0)"/>
       <use xlink:href="#DejaVuSans-30" transform="translate(190.869141 0)"/>
      </g>
     </g>
    </g>
    <g id="xtick_8">
     <g id="line2d_8">
      <g>
       <use xlink:href="#m61bf2b6851" x="357.905455" y="307.584" style="stroke: #000000; stroke-width: 0.8"/>
      </g>
     </g>
     <g id="text_8">
      <!-- 1750 -->
      <g transform="translate(345.180455 322.182437) scale(0.1 -0.1)">
       <use xlink:href="#DejaVuSans-31"/>
       <use xlink:href="#DejaVuSans-37" transform="translate(63.623047 0)"/>
       <use xlink:href="#DejaVuSans-35" transform="translate(127.246094 0)"/>
       <use xlink:href="#DejaVuSans-30" transform="translate(190.869141 0)"/>
      </g>
     </g>
    </g>
    <g id="xtick_9">
     <g id="line2d_9">
      <g>
       <use xlink:href="#m61bf2b6851" x="398.487273" y="307.584" style="stroke: #000000; stroke-width: 0.8"/>
      </g>
     </g>
     <g id="text_9">
      <!-- 2000 -->
      <g transform="translate(385.762273 322.182437) scale(0.1 -0.1)">
       <use xlink:href="#DejaVuSans-32"/>
       <use xlink:href="#DejaVuSans-30" transform="translate(63.623047 0)"/>
       <use xlink:href="#DejaVuSans-30" transform="translate(127.246094 0)"/>
       <use xlink:href="#DejaVuSans-30" transform="translate(190.869141 0)"/>
      </g>
     </g>
    </g>
    <g id="text_10">
     <!-- Distance to nearest vessel -->
     <g transform="translate(169.906094 335.860562) scale(0.1 -0.1)">
      <defs>
       <path id="DejaVuSans-44" d="M 1259 4147 
L 1259 519 
L 2022 519 
Q 2988 519 3436 956 
Q 3884 1394 3884 2338 
Q 3884 3275 3436 3711 
Q 2988 4147 2022 4147 
L 1259 4147 
z
M 628 4666 
L 1925 4666 
Q 3281 4666 3915 4102 
Q 4550 3538 4550 2338 
Q 4550 1131 3912 565 
Q 3275 0 1925 0 
L 628 0 
L 628 4666 
z
" transform="scale(0.015625)"/>
       <path id="DejaVuSans-69" d="M 603 3500 
L 1178 3500 
L 1178 0 
L 603 0 
L 603 3500 
z
M 603 4863 
L 1178 4863 
L 1178 4134 
L 603 4134 
L 603 4863 
z
" transform="scale(0.015625)"/>
       <path id="DejaVuSans-73" d="M 2834 3397 
L 2834 2853 
Q 2591 2978 2328 3040 
Q 2066 3103 1784 3103 
Q 1356 3103 1142 2972 
Q 928 2841 928 2578 
Q 928 2378 1081 2264 
Q 1234 2150 1697 2047 
L 1894 2003 
Q 2506 1872 2764 1633 
Q 3022 1394 3022 966 
Q 3022 478 2636 193 
Q 2250 -91 1575 -91 
Q 1294 -91 989 -36 
Q 684 19 347 128 
L 347 722 
Q 666 556 975 473 
Q 1284 391 1588 391 
Q 1994 391 2212 530 
Q 2431 669 2431 922 
Q 2431 1156 2273 1281 
Q 2116 1406 1581 1522 
L 1381 1569 
Q 847 1681 609 1914 
Q 372 2147 372 2553 
Q 372 3047 722 3315 
Q 1072 3584 1716 3584 
Q 2034 3584 2315 3537 
Q 2597 3491 2834 3397 
z
" transform="scale(0.015625)"/>
       <path id="DejaVuSans-74" d="M 1172 4494 
L 1172 3500 
L 2356 3500 
L 2356 3053 
L 1172 3053 
L 1172 1153 
Q 1172 725 1289 603 
Q 1406 481 1766 481 
L 2356 481 
L 2356 0 
L 1766 0 
Q 1100 0 847 248 
Q 594 497 594 1153 
L 594 3053 
L 172 3053 
L 172 3500 
L 594 3500 
L 594 4494 
L 1172 4494 
z
" transform="scale(0.015625)"/>
       <path id="DejaVuSans-61" d="M 2194 1759 
Q 1497 1759 1228 1600 
Q 959 1441 959 1056 
Q 959 750 1161 570 
Q 1363 391 1709 391 
Q 2188 391 2477 730 
Q 2766 1069 2766 1631 
L 2766 1759 
L 2194 1759 
z
M 3341 1997 
L 3341 0 
L 2766 0 
L 2766 531 
Q 2569 213 2275 61 
Q 1981 -91 1556 -91 
Q 1019 -91 701 211 
Q 384 513 384 1019 
Q 384 1609 779 1909 
Q 1175 2209 1959 2209 
L 2766 2209 
L 2766 2266 
Q 2766 2663 2505 2880 
Q 2244 3097 1772 3097 
Q 1472 3097 1187 3025 
Q 903 2953 641 2809 
L 641 3341 
Q 956 3463 1253 3523 
Q 1550 3584 1831 3584 
Q 2591 3584 2966 3190 
Q 3341 2797 3341 1997 
z
" transform="scale(0.015625)"/>
       <path id="DejaVuSans-6e" d="M 3513 2113 
L 3513 0 
L 2938 0 
L 2938 2094 
Q 2938 2591 2744 2837 
Q 2550 3084 2163 3084 
Q 1697 3084 1428 2787 
Q 1159 2491 1159 1978 
L 1159 0 
L 581 0 
L 581 3500 
L 1159 3500 
L 1159 2956 
Q 1366 3272 1645 3428 
Q 1925 3584 2291 3584 
Q 2894 3584 3203 3211 
Q 3513 2838 3513 2113 
z
" transform="scale(0.015625)"/>
       <path id="DejaVuSans-63" d="M 3122 3366 
L 3122 2828 
Q 2878 2963 2633 3030 
Q 2388 3097 2138 3097 
Q 1578 3097 1268 2742 
Q 959 2388 959 1747 
Q 959 1106 1268 751 
Q 1578 397 2138 397 
Q 2388 397 2633 464 
Q 2878 531 3122 666 
L 3122 134 
Q 2881 22 2623 -34 
Q 2366 -91 2075 -91 
Q 1284 -91 818 406 
Q 353 903 353 1747 
Q 353 2603 823 3093 
Q 1294 3584 2113 3584 
Q 2378 3584 2631 3529 
Q 2884 3475 3122 3366 
z
" transform="scale(0.015625)"/>
       <path id="DejaVuSans-65" d="M 3597 1894 
L 3597 1613 
L 953 1613 
Q 991 1019 1311 708 
Q 1631 397 2203 397 
Q 2534 397 2845 478 
Q 3156 559 3463 722 
L 3463 178 
Q 3153 47 2828 -22 
Q 2503 -91 2169 -91 
Q 1331 -91 842 396 
Q 353 884 353 1716 
Q 353 2575 817 3079 
Q 1281 3584 2069 3584 
Q 2775 3584 3186 3129 
Q 3597 2675 3597 1894 
z
M 3022 2063 
Q 3016 2534 2758 2815 
Q 2500 3097 2075 3097 
Q 1594 3097 1305 2825 
Q 1016 2553 972 2059 
L 3022 2063 
z
" transform="scale(0.015625)"/>
       <path id="DejaVuSans-20" transform="scale(0.015625)"/>
       <path id="DejaVuSans-6f" d="M 1959 3097 
Q 1497 3097 1228 2736 
Q 959 2375 959 1747 
Q 959 1119 1226 758 
Q 1494 397 1959 397 
Q 2419 397 2687 759 
Q 2956 1122 2956 1747 
Q 2956 2369 2687 2733 
Q 2419 3097 1959 3097 
z
M 1959 3584 
Q 2709 3584 3137 3096 
Q 3566 2609 3566 1747 
Q 3566 888 3137 398 
Q 2709 -91 1959 -91 
Q 1206 -91 779 398 
Q 353 888 353 1747 
Q 353 2609 779 3096 
Q 1206 3584 1959 3584 
z
" transform="scale(0.015625)"/>
       <path id="DejaVuSans-72" d="M 2631 2963 
Q 2534 3019 2420 3045 
Q 2306 3072 2169 3072 
Q 1681 3072 1420 2755 
Q 1159 2438 1159 1844 
L 1159 0 
L 581 0 
L 581 3500 
L 1159 3500 
L 1159 2956 
Q 1341 3275 1631 3429 
Q 1922 3584 2338 3584 
Q 2397 3584 2469 3576 
Q 2541 3569 2628 3553 
L 2631 2963 
z
" transform="scale(0.015625)"/>
       <path id="DejaVuSans-76" d="M 191 3500 
L 800 3500 
L 1894 563 
L 2988 3500 
L 3597 3500 
L 2284 0 
L 1503 0 
L 191 3500 
z
" transform="scale(0.015625)"/>
       <path id="DejaVuSans-6c" d="M 603 4863 
L 1178 4863 
L 1178 0 
L 603 0 
L 603 4863 
z
" transform="scale(0.015625)"/>
      </defs>
      <use xlink:href="#DejaVuSans-44"/>
      <use xlink:href="#DejaVuSans-69" transform="translate(77.001953 0)"/>
      <use xlink:href="#DejaVuSans-73" transform="translate(104.785156 0)"/>
      <use xlink:href="#DejaVuSans-74" transform="translate(156.884766 0)"/>
      <use xlink:href="#DejaVuSans-61" transform="translate(196.09375 0)"/>
      <use xlink:href="#DejaVuSans-6e" transform="translate(257.373047 0)"/>
      <use xlink:href="#DejaVuSans-63" transform="translate(320.751953 0)"/>
      <use xlink:href="#DejaVuSans-65" transform="translate(375.732422 0)"/>
      <use xlink:href="#DejaVuSans-20" transform="translate(437.255859 0)"/>
      <use xlink:href="#DejaVuSans-74" transform="translate(469.042969 0)"/>
      <use xlink:href="#DejaVuSans-6f" transform="translate(508.251953 0)"/>
      <use xlink:href="#DejaVuSans-20" transform="translate(569.433594 0)"/>
      <use xlink:href="#DejaVuSans-6e" transform="translate(601.220703 0)"/>
      <use xlink:href="#DejaVuSans-65" transform="translate(664.599609 0)"/>
      <use xlink:href="#DejaVuSans-61" transform="translate(726.123047 0)"/>
      <use xlink:href="#DejaVuSans-72" transform="translate(787.402344 0)"/>
      <use xlink:href="#DejaVuSans-65" transform="translate(826.265625 0)"/>
      <use xlink:href="#DejaVuSans-73" transform="translate(887.789062 0)"/>
      <use xlink:href="#DejaVuSans-74" transform="translate(939.888672 0)"/>
      <use xlink:href="#DejaVuSans-20" transform="translate(979.097656 0)"/>
      <use xlink:href="#DejaVuSans-76" transform="translate(1010.884766 0)"/>
      <use xlink:href="#DejaVuSans-65" transform="translate(1070.064453 0)"/>
      <use xlink:href="#DejaVuSans-73" transform="translate(1131.587891 0)"/>
      <use xlink:href="#DejaVuSans-73" transform="translate(1183.6875 0)"/>
      <use xlink:href="#DejaVuSans-65" transform="translate(1235.787109 0)"/>
      <use xlink:href="#DejaVuSans-6c" transform="translate(1297.310547 0)"/>
     </g>
    </g>
   </g>
   <g id="matplotlib.axis_2">
    <g id="ytick_1">
     <g id="line2d_10">
      <defs>
       <path id="m3da453d56e" d="M 0 0 
L -3.5 0 
" style="stroke: #000000; stroke-width: 0.8"/>
      </defs>
      <g>
       <use xlink:href="#m3da453d56e" x="57.6" y="109.559815" style="stroke: #000000; stroke-width: 0.8"/>
      </g>
     </g>
     <g id="text_11">
      <!-- $\mathdefault{10^{5}}$ -->
      <g transform="translate(33 113.359034) scale(0.1 -0.1)">
       <use xlink:href="#DejaVuSans-31" transform="translate(0 0.684375)"/>
       <use xlink:href="#DejaVuSans-30" transform="translate(63.623047 0.684375)"/>
       <use xlink:href="#DejaVuSans-35" transform="translate(128.203125 38.965625) scale(0.7)"/>
      </g>
     </g>
    </g>
    <g id="ytick_2">
     <g id="line2d_11">
      <defs>
       <path id="me6f0ee4de9" d="M 0 0 
L -2 0 
" style="stroke: #000000; stroke-width: 0.6"/>
      </defs>
      <g>
       <use xlink:href="#me6f0ee4de9" x="57.6" y="278.480979" style="stroke: #000000; stroke-width: 0.6"/>
      </g>
     </g>
     <g id="text_12">
      <!-- $\mathdefault{4\times10^{4}}$ -->
      <g transform="translate(16 282.280198) scale(0.1 -0.1)">
       <defs>
        <path id="DejaVuSans-34" d="M 2419 4116 
L 825 1625 
L 2419 1625 
L 2419 4116 
z
M 2253 4666 
L 3047 4666 
L 3047 1625 
L 3713 1625 
L 3713 1100 
L 3047 1100 
L 3047 0 
L 2419 0 
L 2419 1100 
L 313 1100 
L 313 1709 
L 2253 4666 
z
" transform="scale(0.015625)"/>
        <path id="DejaVuSans-d7" d="M 4488 3438 
L 3059 2003 
L 4488 575 
L 4116 197 
L 2681 1631 
L 1247 197 
L 878 575 
L 2303 2003 
L 878 3438 
L 1247 3816 
L 2681 2381 
L 4116 3816 
L 4488 3438 
z
" transform="scale(0.015625)"/>
       </defs>
       <use xlink:href="#DejaVuSans-34" transform="translate(0 0.684375)"/>
       <use xlink:href="#DejaVuSans-d7" transform="translate(83.105469 0.684375)"/>
       <use xlink:href="#DejaVuSans-31" transform="translate(186.376953 0.684375)"/>
       <use xlink:href="#DejaVuSans-30" transform="translate(250 0.684375)"/>
       <use xlink:href="#DejaVuSans-34" transform="translate(314.580078 38.965625) scale(0.7)"/>
      </g>
     </g>
    </g>
    <g id="ytick_3">
     <g id="line2d_12">
      <g>
       <use xlink:href="#me6f0ee4de9" x="57.6" y="237.343743" style="stroke: #000000; stroke-width: 0.6"/>
      </g>
     </g>
    </g>
    <g id="ytick_4">
     <g id="line2d_13">
      <g>
       <use xlink:href="#me6f0ee4de9" x="57.6" y="203.732173" style="stroke: #000000; stroke-width: 0.6"/>
      </g>
     </g>
     <g id="text_13">
      <!-- $\mathdefault{6\times10^{4}}$ -->
      <g transform="translate(16 207.531392) scale(0.1 -0.1)">
       <defs>
        <path id="DejaVuSans-36" d="M 2113 2584 
Q 1688 2584 1439 2293 
Q 1191 2003 1191 1497 
Q 1191 994 1439 701 
Q 1688 409 2113 409 
Q 2538 409 2786 701 
Q 3034 994 3034 1497 
Q 3034 2003 2786 2293 
Q 2538 2584 2113 2584 
z
M 3366 4563 
L 3366 3988 
Q 3128 4100 2886 4159 
Q 2644 4219 2406 4219 
Q 1781 4219 1451 3797 
Q 1122 3375 1075 2522 
Q 1259 2794 1537 2939 
Q 1816 3084 2150 3084 
Q 2853 3084 3261 2657 
Q 3669 2231 3669 1497 
Q 3669 778 3244 343 
Q 2819 -91 2113 -91 
Q 1303 -91 875 529 
Q 447 1150 447 2328 
Q 447 3434 972 4092 
Q 1497 4750 2381 4750 
Q 2619 4750 2861 4703 
Q 3103 4656 3366 4563 
z
" transform="scale(0.015625)"/>
       </defs>
       <use xlink:href="#DejaVuSans-36" transform="translate(0 0.684375)"/>
       <use xlink:href="#DejaVuSans-d7" transform="translate(83.105469 0.684375)"/>
       <use xlink:href="#DejaVuSans-31" transform="translate(186.376953 0.684375)"/>
       <use xlink:href="#DejaVuSans-30" transform="translate(250 0.684375)"/>
       <use xlink:href="#DejaVuSans-34" transform="translate(314.580078 38.965625) scale(0.7)"/>
      </g>
     </g>
    </g>
    <g id="ytick_5">
     <g id="line2d_14">
      <g>
       <use xlink:href="#me6f0ee4de9" x="57.6" y="175.313996" style="stroke: #000000; stroke-width: 0.6"/>
      </g>
     </g>
    </g>
    <g id="ytick_6">
     <g id="line2d_15">
      <g>
       <use xlink:href="#me6f0ee4de9" x="57.6" y="150.697052" style="stroke: #000000; stroke-width: 0.6"/>
      </g>
     </g>
    </g>
    <g id="ytick_7">
     <g id="line2d_16">
      <g>
       <use xlink:href="#me6f0ee4de9" x="57.6" y="128.983368" style="stroke: #000000; stroke-width: 0.6"/>
      </g>
     </g>
    </g>
    <g id="text_14">
     <!-- Number of vessels -->
     <g transform="translate(9.920312 220.927219) rotate(-90) scale(0.1 -0.1)">
      <defs>
       <path id="DejaVuSans-4e" d="M 628 4666 
L 1478 4666 
L 3547 763 
L 3547 4666 
L 4159 4666 
L 4159 0 
L 3309 0 
L 1241 3903 
L 1241 0 
L 628 0 
L 628 4666 
z
" transform="scale(0.015625)"/>
       <path id="DejaVuSans-75" d="M 544 1381 
L 544 3500 
L 1119 3500 
L 1119 1403 
Q 1119 906 1312 657 
Q 1506 409 1894 409 
Q 2359 409 2629 706 
Q 2900 1003 2900 1516 
L 2900 3500 
L 3475 3500 
L 3475 0 
L 2900 0 
L 2900 538 
Q 2691 219 2414 64 
Q 2138 -91 1772 -91 
Q 1169 -91 856 284 
Q 544 659 544 1381 
z
M 1991 3584 
L 1991 3584 
z
" transform="scale(0.015625)"/>
       <path id="DejaVuSans-6d" d="M 3328 2828 
Q 3544 3216 3844 3400 
Q 4144 3584 4550 3584 
Q 5097 3584 5394 3201 
Q 5691 2819 5691 2113 
L 5691 0 
L 5113 0 
L 5113 2094 
Q 5113 2597 4934 2840 
Q 4756 3084 4391 3084 
Q 3944 3084 3684 2787 
Q 3425 2491 3425 1978 
L 3425 0 
L 2847 0 
L 2847 2094 
Q 2847 2600 2669 2842 
Q 2491 3084 2119 3084 
Q 1678 3084 1418 2786 
Q 1159 2488 1159 1978 
L 1159 0 
L 581 0 
L 581 3500 
L 1159 3500 
L 1159 2956 
Q 1356 3278 1631 3431 
Q 1906 3584 2284 3584 
Q 2666 3584 2933 3390 
Q 3200 3197 3328 2828 
z
" transform="scale(0.015625)"/>
       <path id="DejaVuSans-62" d="M 3116 1747 
Q 3116 2381 2855 2742 
Q 2594 3103 2138 3103 
Q 1681 3103 1420 2742 
Q 1159 2381 1159 1747 
Q 1159 1113 1420 752 
Q 1681 391 2138 391 
Q 2594 391 2855 752 
Q 3116 1113 3116 1747 
z
M 1159 2969 
Q 1341 3281 1617 3432 
Q 1894 3584 2278 3584 
Q 2916 3584 3314 3078 
Q 3713 2572 3713 1747 
Q 3713 922 3314 415 
Q 2916 -91 2278 -91 
Q 1894 -91 1617 61 
Q 1341 213 1159 525 
L 1159 0 
L 581 0 
L 581 4863 
L 1159 4863 
L 1159 2969 
z
" transform="scale(0.015625)"/>
       <path id="DejaVuSans-66" d="M 2375 4863 
L 2375 4384 
L 1825 4384 
Q 1516 4384 1395 4259 
Q 1275 4134 1275 3809 
L 1275 3500 
L 2222 3500 
L 2222 3053 
L 1275 3053 
L 1275 0 
L 697 0 
L 697 3053 
L 147 3053 
L 147 3500 
L 697 3500 
L 697 3744 
Q 697 4328 969 4595 
Q 1241 4863 1831 4863 
L 2375 4863 
z
" transform="scale(0.015625)"/>
      </defs>
      <use xlink:href="#DejaVuSans-4e"/>
      <use xlink:href="#DejaVuSans-75" transform="translate(74.804688 0)"/>
      <use xlink:href="#DejaVuSans-6d" transform="translate(138.183594 0)"/>
      <use xlink:href="#DejaVuSans-62" transform="translate(235.595703 0)"/>
      <use xlink:href="#DejaVuSans-65" transform="translate(299.072266 0)"/>
      <use xlink:href="#DejaVuSans-72" transform="translate(360.595703 0)"/>
      <use xlink:href="#DejaVuSans-20" transform="translate(401.708984 0)"/>
      <use xlink:href="#DejaVuSans-6f" transform="translate(433.496094 0)"/>
      <use xlink:href="#DejaVuSans-66" transform="translate(494.677734 0)"/>
      <use xlink:href="#DejaVuSans-20" transform="translate(529.882812 0)"/>
      <use xlink:href="#DejaVuSans-76" transform="translate(561.669922 0)"/>
      <use xlink:href="#DejaVuSans-65" transform="translate(620.849609 0)"/>
      <use xlink:href="#DejaVuSans-73" transform="translate(682.373047 0)"/>
      <use xlink:href="#DejaVuSans-73" transform="translate(734.472656 0)"/>
      <use xlink:href="#DejaVuSans-65" transform="translate(786.572266 0)"/>
      <use xlink:href="#DejaVuSans-6c" transform="translate(848.095703 0)"/>
      <use xlink:href="#DejaVuSans-73" transform="translate(875.878906 0)"/>
     </g>
    </g>
   </g>
   <g id="patch_103">
    <path d="M 57.6 307.584 
L 57.6 41.472 
" style="fill: none; stroke: #000000; stroke-width: 0.8; stroke-linejoin: miter; stroke-linecap: square"/>
   </g>
   <g id="patch_104">
    <path d="M 414.72 307.584 
L 414.72 41.472 
" style="fill: none; stroke: #000000; stroke-width: 0.8; stroke-linejoin: miter; stroke-linecap: square"/>
   </g>
   <g id="patch_105">
    <path d="M 57.6 307.584 
L 414.72 307.584 
" style="fill: none; stroke: #000000; stroke-width: 0.8; stroke-linejoin: miter; stroke-linecap: square"/>
   </g>
   <g id="patch_106">
    <path d="M 57.6 41.472 
L 414.72 41.472 
" style="fill: none; stroke: #000000; stroke-width: 0.8; stroke-linejoin: miter; stroke-linecap: square"/>
   </g>
  </g>
 </g>
 <defs>
  <clipPath id="p52723c7858">
   <rect x="57.6" y="41.472" width="357.12" height="266.112"/>
  </clipPath>
 </defs>
</svg>
