<?xml version="1.0" encoding="utf-8" standalone="no"?>
<!DOCTYPE svg PUBLIC "-//W3C//DTD SVG 1.1//EN"
  "http://www.w3.org/Graphics/SVG/1.1/DTD/svg11.dtd">
<svg xmlns:xlink="http://www.w3.org/1999/xlink" width="460.8pt" height="345.6pt" viewBox="0 0 460.8 345.6" xmlns="http://www.w3.org/2000/svg" version="1.1">
 <metadata>
  <rdf:RDF xmlns:dc="http://purl.org/dc/elements/1.1/" xmlns:cc="http://creativecommons.org/ns#" xmlns:rdf="http://www.w3.org/1999/02/22-rdf-syntax-ns#">
   <cc:Work>
    <dc:type rdf:resource="http://purl.org/dc/dcmitype/StillImage"/>
    <dc:date>2025-02-20T13:50:32.318067</dc:date>
    <dc:format>image/svg+xml</dc:format>
    <dc:creator>
     <cc:Agent>
      <dc:title>Matplotlib v3.10.0, https://matplotlib.org/</dc:title>
     </cc:Agent>
    </dc:creator>
   </cc:Work>
  </rdf:RDF>
 </metadata>
 <defs>
  <style type="text/css">*{stroke-linejoin: round; stroke-linecap: butt}</style>
 </defs>
 <g id="figure_1">
  <g id="patch_1">
   <path d="M 0 345.6 
L 460.8 345.6 
L 460.8 0 
L 0 0 
z
" style="fill: #ffffff"/>
  </g>
  <g id="axes_1">
   <g id="patch_2">
    <path d="M 57.6 307.584 
L 414.72 307.584 
L 414.72 41.472 
L 57.6 41.472 
z
" style="fill: #ffffff"/>
   </g>
   <g id="patch_3">
    <path d="M 73.832727 100881.930708 
L 77.079273 100881.930708 
L 77.079273 191.370995 
L 73.832727 191.370995 
z
" clip-path="url(#pa591c58246)" style="fill: #1f77b4"/>
   </g>
   <g id="patch_4">
    <path d="M 77.079273 100881.930708 
L 80.325818 100881.930708 
L 80.325818 213.28227 
L 77.079273 213.28227 
z
" clip-path="url(#pa591c58246)" style="fill: #1f77b4"/>
   </g>
   <g id="patch_5">
    <path d="M 80.325818 100881.930708 
L 83.572364 100881.930708 
L 83.572364 225.238999 
L 80.325818 225.238999 
z
" clip-path="url(#pa591c58246)" style="fill: #1f77b4"/>
   </g>
   <g id="patch_6">
    <path d="M 83.572364 100881.930708 
L 86.818909 100881.930708 
L 86.818909 234.514446 
L 83.572364 234.514446 
z
" clip-path="url(#pa591c58246)" style="fill: #1f77b4"/>
   </g>
   <g id="patch_7">
    <path d="M 86.818909 100881.930708 
L 90.065455 100881.930708 
L 90.065455 242.707367 
L 86.818909 242.707367 
z
" clip-path="url(#pa591c58246)" style="fill: #1f77b4"/>
   </g>
   <g id="patch_8">
    <path d="M 90.065455 100881.930708 
L 93.312 100881.930708 
L 93.312 246.953959 
L 90.065455 246.953959 
z
" clip-path="url(#pa591c58246)" style="fill: #1f77b4"/>
   </g>
   <g id="patch_9">
    <path d="M 93.312 100881.930708 
L 96.558545 100881.930708 
L 96.558545 249.426511 
L 93.312 249.426511 
z
" clip-path="url(#pa591c58246)" style="fill: #1f77b4"/>
   </g>
   <g id="patch_10">
    <path d="M 96.558545 100881.930708 
L 99.805091 100881.930708 
L 99.805091 251.908838 
L 96.558545 251.908838 
z
" clip-path="url(#pa591c58246)" style="fill: #1f77b4"/>
   </g>
   <g id="patch_11">
    <path d="M 99.805091 100881.930708 
L 103.051636 100881.930708 
L 103.051636 250.596081 
L 99.805091 250.596081 
z
" clip-path="url(#pa591c58246)" style="fill: #1f77b4"/>
   </g>
   <g id="patch_12">
    <path d="M 103.051636 100881.930708 
L 106.298182 100881.930708 
L 106.298182 252.187381 
L 103.051636 252.187381 
z
" clip-path="url(#pa591c58246)" style="fill: #1f77b4"/>
   </g>
   <g id="patch_13">
    <path d="M 106.298182 100881.930708 
L 109.544727 100881.930708 
L 109.544727 257.02951 
L 106.298182 257.02951 
z
" clip-path="url(#pa591c58246)" style="fill: #1f77b4"/>
   </g>
   <g id="patch_14">
    <path d="M 109.544727 100881.930708 
L 112.791273 100881.930708 
L 112.791273 261.222204 
L 109.544727 261.222204 
z
" clip-path="url(#pa591c58246)" style="fill: #1f77b4"/>
   </g>
   <g id="patch_15">
    <path d="M 112.791273 100881.930708 
L 116.037818 100881.930708 
L 116.037818 259.6686 
L 112.791273 259.6686 
z
" clip-path="url(#pa591c58246)" style="fill: #1f77b4"/>
   </g>
   <g id="patch_16">
    <path d="M 116.037818 100881.930708 
L 119.284364 100881.930708 
L 119.284364 262.868963 
L 116.037818 262.868963 
z
" clip-path="url(#pa591c58246)" style="fill: #1f77b4"/>
   </g>
   <g id="patch_17">
    <path d="M 119.284364 100881.930708 
L 122.530909 100881.930708 
L 122.530909 263.734499 
L 119.284364 263.734499 
z
" clip-path="url(#pa591c58246)" style="fill: #1f77b4"/>
   </g>
   <g id="patch_18">
    <path d="M 122.530909 100881.930708 
L 125.777455 100881.930708 
L 125.777455 260.438477 
L 122.530909 260.438477 
z
" clip-path="url(#pa591c58246)" style="fill: #1f77b4"/>
   </g>
   <g id="patch_19">
    <path d="M 125.777455 100881.930708 
L 129.024 100881.930708 
L 129.024 267.817425 
L 125.777455 267.817425 
z
" clip-path="url(#pa591c58246)" style="fill: #1f77b4"/>
   </g>
   <g id="patch_20">
    <path d="M 129.024 100881.930708 
L 132.270545 100881.930708 
L 132.270545 266.40059 
L 129.024 266.40059 
z
" clip-path="url(#pa591c58246)" style="fill: #1f77b4"/>
   </g>
   <g id="patch_21">
    <path d="M 132.270545 100881.930708 
L 135.517091 100881.930708 
L 135.517091 265.823577 
L 132.270545 265.823577 
z
" clip-path="url(#pa591c58246)" style="fill: #1f77b4"/>
   </g>
   <g id="patch_22">
    <path d="M 135.517091 100881.930708 
L 138.763636 100881.930708 
L 138.763636 269.116723 
L 135.517091 269.116723 
z
" clip-path="url(#pa591c58246)" style="fill: #1f77b4"/>
   </g>
   <g id="patch_23">
    <path d="M 138.763636 100881.930708 
L 142.010182 100881.930708 
L 142.010182 270.455967 
L 138.763636 270.455967 
z
" clip-path="url(#pa591c58246)" style="fill: #1f77b4"/>
   </g>
   <g id="patch_24">
    <path d="M 142.010182 100881.930708 
L 145.256727 100881.930708 
L 145.256727 271.793843 
L 142.010182 271.793843 
z
" clip-path="url(#pa591c58246)" style="fill: #1f77b4"/>
   </g>
   <g id="patch_25">
    <path d="M 145.256727 100881.930708 
L 148.503273 100881.930708 
L 148.503273 272.145876 
L 145.256727 272.145876 
z
" clip-path="url(#pa591c58246)" style="fill: #1f77b4"/>
   </g>
   <g id="patch_26">
    <path d="M 148.503273 100881.930708 
L 151.749818 100881.930708 
L 151.749818 272.41178 
L 148.503273 272.41178 
z
" clip-path="url(#pa591c58246)" style="fill: #1f77b4"/>
   </g>
   <g id="patch_27">
    <path d="M 151.749818 100881.930708 
L 154.996364 100881.930708 
L 154.996364 275.401502 
L 151.749818 275.401502 
z
" clip-path="url(#pa591c58246)" style="fill: #1f77b4"/>
   </g>
   <g id="patch_28">
    <path d="M 154.996364 100881.930708 
L 158.242909 100881.930708 
L 158.242909 272.0576 
L 154.996364 272.0576 
z
" clip-path="url(#pa591c58246)" style="fill: #1f77b4"/>
   </g>
   <g id="patch_29">
    <path d="M 158.242909 100881.930708 
L 161.489455 100881.930708 
L 161.489455 274.975099 
L 158.242909 274.975099 
z
" clip-path="url(#pa591c58246)" style="fill: #1f77b4"/>
   </g>
   <g id="patch_30">
    <path d="M 161.489455 100881.930708 
L 164.736 100881.930708 
L 164.736 271.881585 
L 161.489455 271.881585 
z
" clip-path="url(#pa591c58246)" style="fill: #1f77b4"/>
   </g>
   <g id="patch_31">
    <path d="M 164.736 100881.930708 
L 167.982545 100881.930708 
L 167.982545 276.218498 
L 164.736 276.218498 
z
" clip-path="url(#pa591c58246)" style="fill: #1f77b4"/>
   </g>
   <g id="patch_32">
    <path d="M 167.982545 100881.930708 
L 171.229091 100881.930708 
L 171.229091 281.855824 
L 167.982545 281.855824 
z
" clip-path="url(#pa591c58246)" style="fill: #1f77b4"/>
   </g>
   <g id="patch_33">
    <path d="M 171.229091 100881.930708 
L 174.475636 100881.930708 
L 174.475636 282.917728 
L 171.229091 282.917728 
z
" clip-path="url(#pa591c58246)" style="fill: #1f77b4"/>
   </g>
   <g id="patch_34">
    <path d="M 174.475636 100881.930708 
L 177.722182 100881.930708 
L 177.722182 282.244046 
L 174.475636 282.244046 
z
" clip-path="url(#pa591c58246)" style="fill: #1f77b4"/>
   </g>
   <g id="patch_35">
    <path d="M 177.722182 100881.930708 
L 180.968727 100881.930708 
L 180.968727 286.945515 
L 177.722182 286.945515 
z
" clip-path="url(#pa591c58246)" style="fill: #1f77b4"/>
   </g>
   <g id="patch_36">
    <path d="M 180.968727 100881.930708 
L 184.215273 100881.930708 
L 184.215273 291.798233 
L 180.968727 291.798233 
z
" clip-path="url(#pa591c58246)" style="fill: #1f77b4"/>
   </g>
   <g id="patch_37">
    <path d="M 184.215273 100881.930708 
L 187.461818 100881.930708 
L 187.461818 286.513269 
L 184.215273 286.513269 
z
" clip-path="url(#pa591c58246)" style="fill: #1f77b4"/>
   </g>
   <g id="patch_38">
    <path d="M 187.461818 100881.930708 
L 190.708364 100881.930708 
L 190.708364 284.472716 
L 187.461818 284.472716 
z
" clip-path="url(#pa591c58246)" style="fill: #1f77b4"/>
   </g>
   <g id="patch_39">
    <path d="M 190.708364 100881.930708 
L 193.954909 100881.930708 
L 193.954909 284.472716 
L 190.708364 284.472716 
z
" clip-path="url(#pa591c58246)" style="fill: #1f77b4"/>
   </g>
   <g id="patch_40">
    <path d="M 193.954909 100881.930708 
L 197.201455 100881.930708 
L 197.201455 280.230118 
L 193.954909 280.230118 
z
" clip-path="url(#pa591c58246)" style="fill: #1f77b4"/>
   </g>
   <g id="patch_41">
    <path d="M 197.201455 100881.930708 
L 200.448 100881.930708 
L 200.448 277.00169 
L 197.201455 277.00169 
z
" clip-path="url(#pa591c58246)" style="fill: #1f77b4"/>
   </g>
   <g id="patch_42">
    <path d="M 200.448 100881.930708 
L 203.694545 100881.930708 
L 203.694545 280.123865 
L 200.448 280.123865 
z
" clip-path="url(#pa591c58246)" style="fill: #1f77b4"/>
   </g>
   <g id="patch_43">
    <path d="M 203.694545 100881.930708 
L 206.941091 100881.930708 
L 206.941091 278.560401 
L 203.694545 278.560401 
z
" clip-path="url(#pa591c58246)" style="fill: #1f77b4"/>
   </g>
   <g id="patch_44">
    <path d="M 206.941091 100881.930708 
L 210.187636 100881.930708 
L 210.187636 282.63576 
L 206.941091 282.63576 
z
" clip-path="url(#pa591c58246)" style="fill: #1f77b4"/>
   </g>
   <g id="patch_45">
    <path d="M 210.187636 100881.930708 
L 213.434182 100881.930708 
L 213.434182 289.173517 
L 210.187636 289.173517 
z
" clip-path="url(#pa591c58246)" style="fill: #1f77b4"/>
   </g>
   <g id="patch_46">
    <path d="M 213.434182 100881.930708 
L 216.680727 100881.930708 
L 216.680727 279.283041 
L 213.434182 279.283041 
z
" clip-path="url(#pa591c58246)" style="fill: #1f77b4"/>
   </g>
   <g id="patch_47">
    <path d="M 216.680727 100881.930708 
L 219.927273 100881.930708 
L 219.927273 289.173517 
L 216.680727 289.173517 
z
" clip-path="url(#pa591c58246)" style="fill: #1f77b4"/>
   </g>
   <g id="patch_48">
    <path d="M 219.927273 100881.930708 
L 223.173818 100881.930708 
L 223.173818 285.301401 
L 219.927273 285.301401 
z
" clip-path="url(#pa591c58246)" style="fill: #1f77b4"/>
   </g>
   <g id="patch_49">
    <path d="M 223.173818 100881.930708 
L 226.420364 100881.930708 
L 226.420364 288.589629 
L 223.173818 288.589629 
z
" clip-path="url(#pa591c58246)" style="fill: #1f77b4"/>
   </g>
   <g id="patch_50">
    <path d="M 226.420364 100881.930708 
L 229.666909 100881.930708 
L 229.666909 283.948195 
L 226.420364 283.948195 
z
" clip-path="url(#pa591c58246)" style="fill: #1f77b4"/>
   </g>
   <g id="patch_51">
    <path d="M 229.666909 100881.930708 
L 232.913455 100881.930708 
L 232.913455 283.948195 
L 229.666909 283.948195 
z
" clip-path="url(#pa591c58246)" style="fill: #1f77b4"/>
   </g>
   <g id="patch_52">
    <path d="M 232.913455 100881.930708 
L 236.16 100881.930708 
L 236.16 290.769928 
L 232.913455 290.769928 
z
" clip-path="url(#pa591c58246)" style="fill: #1f77b4"/>
   </g>
   <g id="patch_53">
    <path d="M 236.16 100881.930708 
L 239.406545 100881.930708 
L 239.406545 281.089605 
L 236.16 281.089605 
z
" clip-path="url(#pa591c58246)" style="fill: #1f77b4"/>
   </g>
   <g id="patch_54">
    <path d="M 239.406545 100881.930708 
L 242.653091 100881.930708 
L 242.653091 276.804568 
L 239.406545 276.804568 
z
" clip-path="url(#pa591c58246)" style="fill: #1f77b4"/>
   </g>
   <g id="patch_55">
    <path d="M 242.653091 100881.930708 
L 245.899636 100881.930708 
L 245.899636 279.754006 
L 242.653091 279.754006 
z
" clip-path="url(#pa591c58246)" style="fill: #1f77b4"/>
   </g>
   <g id="patch_56">
    <path d="M 245.899636 100881.930708 
L 249.146182 100881.930708 
L 249.146182 283.258516 
L 245.899636 283.258516 
z
" clip-path="url(#pa591c58246)" style="fill: #1f77b4"/>
   </g>
   <g id="patch_57">
    <path d="M 249.146182 100881.930708 
L 252.392727 100881.930708 
L 252.392727 276.461736 
L 249.146182 276.461736 
z
" clip-path="url(#pa591c58246)" style="fill: #1f77b4"/>
   </g>
   <g id="patch_58">
    <path d="M 252.392727 100881.930708 
L 255.639273 100881.930708 
L 255.639273 280.176959 
L 252.392727 280.176959 
z
" clip-path="url(#pa591c58246)" style="fill: #1f77b4"/>
   </g>
   <g id="patch_59">
    <path d="M 255.639273 100881.930708 
L 258.885818 100881.930708 
L 258.885818 281.911073 
L 255.639273 281.911073 
z
" clip-path="url(#pa591c58246)" style="fill: #1f77b4"/>
   </g>
   <g id="patch_60">
    <path d="M 258.885818 100881.930708 
L 262.132364 100881.930708 
L 262.132364 292.427073 
L 258.885818 292.427073 
z
" clip-path="url(#pa591c58246)" style="fill: #1f77b4"/>
   </g>
   <g id="patch_61">
    <path d="M 262.132364 100881.930708 
L 265.378909 100881.930708 
L 265.378909 285.003629 
L 262.132364 285.003629 
z
" clip-path="url(#pa591c58246)" style="fill: #1f77b4"/>
   </g>
   <g id="patch_62">
    <path d="M 265.378909 100881.930708 
L 268.625455 100881.930708 
L 268.625455 278.560401 
L 265.378909 278.560401 
z
" clip-path="url(#pa591c58246)" style="fill: #1f77b4"/>
   </g>
   <g id="patch_63">
    <path d="M 268.625455 100881.930708 
L 271.872 100881.930708 
L 271.872 282.467451 
L 268.625455 282.467451 
z
" clip-path="url(#pa591c58246)" style="fill: #1f77b4"/>
   </g>
   <g id="patch_64">
    <path d="M 271.872 100881.930708 
L 275.118545 100881.930708 
L 275.118545 293.85787 
L 271.872 293.85787 
z
" clip-path="url(#pa591c58246)" style="fill: #1f77b4"/>
   </g>
   <g id="patch_65">
    <path d="M 275.118545 100881.930708 
L 278.365091 100881.930708 
L 278.365091 283.890303 
L 275.118545 283.890303 
z
" clip-path="url(#pa591c58246)" style="fill: #1f77b4"/>
   </g>
   <g id="patch_66">
    <path d="M 278.365091 100881.930708 
L 281.611636 100881.930708 
L 281.611636 281.198244 
L 278.365091 281.198244 
z
" clip-path="url(#pa591c58246)" style="fill: #1f77b4"/>
   </g>
   <g id="patch_67">
    <path d="M 281.611636 100881.930708 
L 284.858182 100881.930708 
L 284.858182 286.146156 
L 281.611636 286.146156 
z
" clip-path="url(#pa591c58246)" style="fill: #1f77b4"/>
   </g>
   <g id="patch_68">
    <path d="M 284.858182 100881.930708 
L 288.104727 100881.930708 
L 288.104727 282.917728 
L 284.858182 282.917728 
z
" clip-path="url(#pa591c58246)" style="fill: #1f77b4"/>
   </g>
   <g id="patch_69">
    <path d="M 288.104727 100881.930708 
L 291.351273 100881.930708 
L 291.351273 295.488 
L 288.104727 295.488 
z
" clip-path="url(#pa591c58246)" style="fill: #1f77b4"/>
   </g>
   <g id="patch_70">
    <path d="M 291.351273 100881.930708 
L 294.597818 100881.930708 
L 294.597818 288.718707 
L 291.351273 288.718707 
z
" clip-path="url(#pa591c58246)" style="fill: #1f77b4"/>
   </g>
   <g id="patch_71">
    <path d="M 294.597818 100881.930708 
L 297.844364 100881.930708 
L 297.844364 276.559413 
L 294.597818 276.559413 
z
" clip-path="url(#pa591c58246)" style="fill: #1f77b4"/>
   </g>
   <g id="patch_72">
    <path d="M 297.844364 100881.930708 
L 301.090909 100881.930708 
L 301.090909 281.198244 
L 297.844364 281.198244 
z
" clip-path="url(#pa591c58246)" style="fill: #1f77b4"/>
   </g>
   <g id="patch_73">
    <path d="M 301.090909 100881.930708 
L 304.337455 100881.930708 
L 304.337455 288.013464 
L 301.090909 288.013464 
z
" clip-path="url(#pa591c58246)" style="fill: #1f77b4"/>
   </g>
   <g id="patch_74">
    <path d="M 304.337455 100881.930708 
L 307.584 100881.930708 
L 307.584 284.122335 
L 304.337455 284.122335 
z
" clip-path="url(#pa591c58246)" style="fill: #1f77b4"/>
   </g>
   <g id="patch_75">
    <path d="M 307.584 100881.930708 
L 310.830545 100881.930708 
L 310.830545 286.329326 
L 307.584 286.329326 
z
" clip-path="url(#pa591c58246)" style="fill: #1f77b4"/>
   </g>
   <g id="patch_76">
    <path d="M 310.830545 100881.930708 
L 314.077091 100881.930708 
L 314.077091 285.903121 
L 310.830545 285.903121 
z
" clip-path="url(#pa591c58246)" style="fill: #1f77b4"/>
   </g>
   <g id="patch_77">
    <path d="M 314.077091 100881.930708 
L 317.323636 100881.930708 
L 317.323636 291.383994 
L 314.077091 291.383994 
z
" clip-path="url(#pa591c58246)" style="fill: #1f77b4"/>
   </g>
   <g id="patch_78">
    <path d="M 317.323636 100881.930708 
L 320.570182 100881.930708 
L 320.570182 288.396726 
L 317.323636 288.396726 
z
" clip-path="url(#pa591c58246)" style="fill: #1f77b4"/>
   </g>
   <g id="patch_79">
    <path d="M 320.570182 100881.930708 
L 323.816727 100881.930708 
L 323.816727 271.314396 
L 320.570182 271.314396 
z
" clip-path="url(#pa591c58246)" style="fill: #1f77b4"/>
   </g>
   <g id="patch_80">
    <path d="M 323.816727 100881.930708 
L 327.063273 100881.930708 
L 327.063273 286.697993 
L 323.816727 286.697993 
z
" clip-path="url(#pa591c58246)" style="fill: #1f77b4"/>
   </g>
   <g id="patch_81">
    <path d="M 327.063273 100881.930708 
L 330.309818 100881.930708 
L 330.309818 285.903121 
L 327.063273 285.903121 
z
" clip-path="url(#pa591c58246)" style="fill: #1f77b4"/>
   </g>
   <g id="patch_82">
    <path d="M 330.309818 100881.930708 
L 333.556364 100881.930708 
L 333.556364 286.024469 
L 330.309818 286.024469 
z
" clip-path="url(#pa591c58246)" style="fill: #1f77b4"/>
   </g>
   <g id="patch_83">
    <path d="M 333.556364 100881.930708 
L 336.802909 100881.930708 
L 336.802909 280.927155 
L 333.556364 280.927155 
z
" clip-path="url(#pa591c58246)" style="fill: #1f77b4"/>
   </g>
   <g id="patch_84">
    <path d="M 336.802909 100881.930708 
L 340.049455 100881.930708 
L 340.049455 288.332615 
L 336.802909 288.332615 
z
" clip-path="url(#pa591c58246)" style="fill: #1f77b4"/>
   </g>
   <g id="patch_85">
    <path d="M 340.049455 100881.930708 
L 343.296 100881.930708 
L 343.296 285.601222 
L 340.049455 285.601222 
z
" clip-path="url(#pa591c58246)" style="fill: #1f77b4"/>
   </g>
   <g id="patch_86">
    <path d="M 343.296 100881.930708 
L 346.542545 100881.930708 
L 346.542545 288.204674 
L 343.296 288.204674 
z
" clip-path="url(#pa591c58246)" style="fill: #1f77b4"/>
   </g>
   <g id="patch_87">
    <path d="M 346.542545 100881.930708 
L 349.789091 100881.930708 
L 349.789091 280.336631 
L 346.542545 280.336631 
z
" clip-path="url(#pa591c58246)" style="fill: #1f77b4"/>
   </g>
   <g id="patch_88">
    <path d="M 349.789091 100881.930708 
L 353.035636 100881.930708 
L 353.035636 278.356115 
L 349.789091 278.356115 
z
" clip-path="url(#pa591c58246)" style="fill: #1f77b4"/>
   </g>
   <g id="patch_89">
    <path d="M 353.035636 100881.930708 
L 356.282182 100881.930708 
L 356.282182 286.390554 
L 353.035636 286.390554 
z
" clip-path="url(#pa591c58246)" style="fill: #1f77b4"/>
   </g>
   <g id="patch_90">
    <path d="M 356.282182 100881.930708 
L 359.528727 100881.930708 
L 359.528727 278.051472 
L 356.282182 278.051472 
z
" clip-path="url(#pa591c58246)" style="fill: #1f77b4"/>
   </g>
   <g id="patch_91">
    <path d="M 359.528727 100881.930708 
L 362.775273 100881.930708 
L 362.775273 281.416336 
L 359.528727 281.416336 
z
" clip-path="url(#pa591c58246)" style="fill: #1f77b4"/>
   </g>
   <g id="patch_92">
    <path d="M 362.775273 100881.930708 
L 366.021818 100881.930708 
L 366.021818 281.911073 
L 362.775273 281.911073 
z
" clip-path="url(#pa591c58246)" style="fill: #1f77b4"/>
   </g>
   <g id="patch_93">
    <path d="M 366.021818 100881.930708 
L 369.268364 100881.930708 
L 369.268364 281.580625 
L 366.021818 281.580625 
z
" clip-path="url(#pa591c58246)" style="fill: #1f77b4"/>
   </g>
   <g id="patch_94">
    <path d="M 369.268364 100881.930708 
L 372.514909 100881.930708 
L 372.514909 285.241684 
L 369.268364 285.241684 
z
" clip-path="url(#pa591c58246)" style="fill: #1f77b4"/>
   </g>
   <g id="patch_95">
    <path d="M 372.514909 100881.930708 
L 375.761455 100881.930708 
L 375.761455 284.180536 
L 372.514909 284.180536 
z
" clip-path="url(#pa591c58246)" style="fill: #1f77b4"/>
   </g>
   <g id="patch_96">
    <path d="M 375.761455 100881.930708 
L 379.008 100881.930708 
L 379.008 278.356115 
L 375.761455 278.356115 
z
" clip-path="url(#pa591c58246)" style="fill: #1f77b4"/>
   </g>
   <g id="patch_97">
    <path d="M 379.008 100881.930708 
L 382.254545 100881.930708 
L 382.254545 270.117276 
L 379.008 270.117276 
z
" clip-path="url(#pa591c58246)" style="fill: #1f77b4"/>
   </g>
   <g id="patch_98">
    <path d="M 382.254545 100881.930708 
L 385.501091 100881.930708 
L 385.501091 267.937601 
L 382.254545 267.937601 
z
" clip-path="url(#pa591c58246)" style="fill: #1f77b4"/>
   </g>
   <g id="patch_99">
    <path d="M 385.501091 100881.930708 
L 388.747636 100881.930708 
L 388.747636 264.35816 
L 385.501091 264.35816 
z
" clip-path="url(#pa591c58246)" style="fill: #1f77b4"/>
   </g>
   <g id="patch_100">
    <path d="M 388.747636 100881.930708 
L 391.994182 100881.930708 
L 391.994182 256.904774 
L 388.747636 256.904774 
z
" clip-path="url(#pa591c58246)" style="fill: #1f77b4"/>
   </g>
   <g id="patch_101">
    <path d="M 391.994182 100881.930708 
L 395.240727 100881.930708 
L 395.240727 236.20443 
L 391.994182 236.20443 
z
" clip-path="url(#pa591c58246)" style="fill: #1f77b4"/>
   </g>
   <g id="patch_102">
    <path d="M 395.240727 100881.930708 
L 398.487273 100881.930708 
L 398.487273 53.568 
L 395.240727 53.568 
z
" clip-path="url(#pa591c58246)" style="fill: #1f77b4"/>
   </g>
   <g id="matplotlib.axis_1">
    <g id="xtick_1">
     <g id="line2d_1">
      <defs>
       <path id="m19c614e51d" d="M 0 0 
L 0 3.5 
" style="stroke: #000000; stroke-width: 0.8"/>
      </defs>
      <g>
       <use xlink:href="#m19c614e51d" x="73.832727" y="307.584" style="stroke: #000000; stroke-width: 0.8"/>
      </g>
     </g>
     <g id="text_1">
      <!-- 0 -->
      <g transform="translate(70.651477 322.182437) scale(0.1 -0.1)">
       <defs>
        <path id="DejaVuSans-30" d="M 2034 4250 
Q 1547 4250 1301 3770 
Q 1056 3291 1056 2328 
Q 1056 1369 1301 889 
Q 1547 409 2034 409 
Q 2525 409 2770 889 
Q 3016 1369 3016 2328 
Q 3016 3291 2770 3770 
Q 2525 4250 2034 4250 
z
M 2034 4750 
Q 2819 4750 3233 4129 
Q 3647 3509 3647 2328 
Q 3647 1150 3233 529 
Q 2819 -91 2034 -91 
Q 1250 -91 836 529 
Q 422 1150 422 2328 
Q 422 3509 836 4129 
Q 1250 4750 2034 4750 
z
" transform="scale(0.015625)"/>
       </defs>
       <use xlink:href="#DejaVuSans-30"/>
      </g>
     </g>
    </g>
    <g id="xtick_2">
     <g id="line2d_2">
      <g>
       <use xlink:href="#m19c614e51d" x="139.419504" y="307.584" style="stroke: #000000; stroke-width: 0.8"/>
      </g>
     </g>
     <g id="text_2">
      <!-- 20 -->
      <g transform="translate(133.057004 322.182437) scale(0.1 -0.1)">
       <defs>
        <path id="DejaVuSans-32" d="M 1228 531 
L 3431 531 
L 3431 0 
L 469 0 
L 469 531 
Q 828 903 1448 1529 
Q 2069 2156 2228 2338 
Q 2531 2678 2651 2914 
Q 2772 3150 2772 3378 
Q 2772 3750 2511 3984 
Q 2250 4219 1831 4219 
Q 1534 4219 1204 4116 
Q 875 4013 500 3803 
L 500 4441 
Q 881 4594 1212 4672 
Q 1544 4750 1819 4750 
Q 2544 4750 2975 4387 
Q 3406 4025 3406 3419 
Q 3406 3131 3298 2873 
Q 3191 2616 2906 2266 
Q 2828 2175 2409 1742 
Q 1991 1309 1228 531 
z
" transform="scale(0.015625)"/>
       </defs>
       <use xlink:href="#DejaVuSans-32"/>
       <use xlink:href="#DejaVuSans-30" transform="translate(63.623047 0)"/>
      </g>
     </g>
    </g>
    <g id="xtick_3">
     <g id="line2d_3">
      <g>
       <use xlink:href="#m19c614e51d" x="205.006281" y="307.584" style="stroke: #000000; stroke-width: 0.8"/>
      </g>
     </g>
     <g id="text_3">
      <!-- 40 -->
      <g transform="translate(198.643781 322.182437) scale(0.1 -0.1)">
       <defs>
        <path id="DejaVuSans-34" d="M 2419 4116 
L 825 1625 
L 2419 1625 
L 2419 4116 
z
M 2253 4666 
L 3047 4666 
L 3047 1625 
L 3713 1625 
L 3713 1100 
L 3047 1100 
L 3047 0 
L 2419 0 
L 2419 1100 
L 313 1100 
L 313 1709 
L 2253 4666 
z
" transform="scale(0.015625)"/>
       </defs>
       <use xlink:href="#DejaVuSans-34"/>
       <use xlink:href="#DejaVuSans-30" transform="translate(63.623047 0)"/>
      </g>
     </g>
    </g>
    <g id="xtick_4">
     <g id="line2d_4">
      <g>
       <use xlink:href="#m19c614e51d" x="270.593058" y="307.584" style="stroke: #000000; stroke-width: 0.8"/>
      </g>
     </g>
     <g id="text_4">
      <!-- 60 -->
      <g transform="translate(264.230558 322.182437) scale(0.1 -0.1)">
       <defs>
        <path id="DejaVuSans-36" d="M 2113 2584 
Q 1688 2584 1439 2293 
Q 1191 2003 1191 1497 
Q 1191 994 1439 701 
Q 1688 409 2113 409 
Q 2538 409 2786 701 
Q 3034 994 3034 1497 
Q 3034 2003 2786 2293 
Q 2538 2584 2113 2584 
z
M 3366 4563 
L 3366 3988 
Q 3128 4100 2886 4159 
Q 2644 4219 2406 4219 
Q 1781 4219 1451 3797 
Q 1122 3375 1075 2522 
Q 1259 2794 1537 2939 
Q 1816 3084 2150 3084 
Q 2853 3084 3261 2657 
Q 3669 2231 3669 1497 
Q 3669 778 3244 343 
Q 2819 -91 2113 -91 
Q 1303 -91 875 529 
Q 447 1150 447 2328 
Q 447 3434 972 4092 
Q 1497 4750 2381 4750 
Q 2619 4750 2861 4703 
Q 3103 4656 3366 4563 
z
" transform="scale(0.015625)"/>
       </defs>
       <use xlink:href="#DejaVuSans-36"/>
       <use xlink:href="#DejaVuSans-30" transform="translate(63.623047 0)"/>
      </g>
     </g>
    </g>
    <g id="xtick_5">
     <g id="line2d_5">
      <g>
       <use xlink:href="#m19c614e51d" x="336.179835" y="307.584" style="stroke: #000000; stroke-width: 0.8"/>
      </g>
     </g>
     <g id="text_5">
      <!-- 80 -->
      <g transform="translate(329.817335 322.182437) scale(0.1 -0.1)">
       <defs>
        <path id="DejaVuSans-38" d="M 2034 2216 
Q 1584 2216 1326 1975 
Q 1069 1734 1069 1313 
Q 1069 891 1326 650 
Q 1584 409 2034 409 
Q 2484 409 2743 651 
Q 3003 894 3003 1313 
Q 3003 1734 2745 1975 
Q 2488 2216 2034 2216 
z
M 1403 2484 
Q 997 2584 770 2862 
Q 544 3141 544 3541 
Q 544 4100 942 4425 
Q 1341 4750 2034 4750 
Q 2731 4750 3128 4425 
Q 3525 4100 3525 3541 
Q 3525 3141 3298 2862 
Q 3072 2584 2669 2484 
Q 3125 2378 3379 2068 
Q 3634 1759 3634 1313 
Q 3634 634 3220 271 
Q 2806 -91 2034 -91 
Q 1263 -91 848 271 
Q 434 634 434 1313 
Q 434 1759 690 2068 
Q 947 2378 1403 2484 
z
M 1172 3481 
Q 1172 3119 1398 2916 
Q 1625 2713 2034 2713 
Q 2441 2713 2670 2916 
Q 2900 3119 2900 3481 
Q 2900 3844 2670 4047 
Q 2441 4250 2034 4250 
Q 1625 4250 1398 4047 
Q 1172 3844 1172 3481 
z
" transform="scale(0.015625)"/>
       </defs>
       <use xlink:href="#DejaVuSans-38"/>
       <use xlink:href="#DejaVuSans-30" transform="translate(63.623047 0)"/>
      </g>
     </g>
    </g>
    <g id="xtick_6">
     <g id="line2d_6">
      <g>
       <use xlink:href="#m19c614e51d" x="401.766612" y="307.584" style="stroke: #000000; stroke-width: 0.8"/>
      </g>
     </g>
     <g id="text_6">
      <!-- 100 -->
      <g transform="translate(392.222862 322.182437) scale(0.1 -0.1)">
       <defs>
        <path id="DejaVuSans-31" d="M 794 531 
L 1825 531 
L 1825 4091 
L 703 3866 
L 703 4441 
L 1819 4666 
L 2450 4666 
L 2450 531 
L 3481 531 
L 3481 0 
L 794 0 
L 794 531 
z
" transform="scale(0.015625)"/>
       </defs>
       <use xlink:href="#DejaVuSans-31"/>
       <use xlink:href="#DejaVuSans-30" transform="translate(63.623047 0)"/>
       <use xlink:href="#DejaVuSans-30" transform="translate(127.246094 0)"/>
      </g>
     </g>
    </g>
    <g id="text_7">
     <!-- Number of other vessels visible from the vessel -->
     <g transform="translate(116.963906 335.860562) scale(0.1 -0.1)">
      <defs>
       <path id="DejaVuSans-4e" d="M 628 4666 
L 1478 4666 
L 3547 763 
L 3547 4666 
L 4159 4666 
L 4159 0 
L 3309 0 
L 1241 3903 
L 1241 0 
L 628 0 
L 628 4666 
z
" transform="scale(0.015625)"/>
       <path id="DejaVuSans-75" d="M 544 1381 
L 544 3500 
L 1119 3500 
L 1119 1403 
Q 1119 906 1312 657 
Q 1506 409 1894 409 
Q 2359 409 2629 706 
Q 2900 1003 2900 1516 
L 2900 3500 
L 3475 3500 
L 3475 0 
L 2900 0 
L 2900 538 
Q 2691 219 2414 64 
Q 2138 -91 1772 -91 
Q 1169 -91 856 284 
Q 544 659 544 1381 
z
M 1991 3584 
L 1991 3584 
z
" transform="scale(0.015625)"/>
       <path id="DejaVuSans-6d" d="M 3328 2828 
Q 3544 3216 3844 3400 
Q 4144 3584 4550 3584 
Q 5097 3584 5394 3201 
Q 5691 2819 5691 2113 
L 5691 0 
L 5113 0 
L 5113 2094 
Q 5113 2597 4934 2840 
Q 4756 3084 4391 3084 
Q 3944 3084 3684 2787 
Q 3425 2491 3425 1978 
L 3425 0 
L 2847 0 
L 2847 2094 
Q 2847 2600 2669 2842 
Q 2491 3084 2119 3084 
Q 1678 3084 1418 2786 
Q 1159 2488 1159 1978 
L 1159 0 
L 581 0 
L 581 3500 
L 1159 3500 
L 1159 2956 
Q 1356 3278 1631 3431 
Q 1906 3584 2284 3584 
Q 2666 3584 2933 3390 
Q 3200 3197 3328 2828 
z
" transform="scale(0.015625)"/>
       <path id="DejaVuSans-62" d="M 3116 1747 
Q 3116 2381 2855 2742 
Q 2594 3103 2138 3103 
Q 1681 3103 1420 2742 
Q 1159 2381 1159 1747 
Q 1159 1113 1420 752 
Q 1681 391 2138 391 
Q 2594 391 2855 752 
Q 3116 1113 3116 1747 
z
M 1159 2969 
Q 1341 3281 1617 3432 
Q 1894 3584 2278 3584 
Q 2916 3584 3314 3078 
Q 3713 2572 3713 1747 
Q 3713 922 3314 415 
Q 2916 -91 2278 -91 
Q 1894 -91 1617 61 
Q 1341 213 1159 525 
L 1159 0 
L 581 0 
L 581 4863 
L 1159 4863 
L 1159 2969 
z
" transform="scale(0.015625)"/>
       <path id="DejaVuSans-65" d="M 3597 1894 
L 3597 1613 
L 953 1613 
Q 991 1019 1311 708 
Q 1631 397 2203 397 
Q 2534 397 2845 478 
Q 3156 559 3463 722 
L 3463 178 
Q 3153 47 2828 -22 
Q 2503 -91 2169 -91 
Q 1331 -91 842 396 
Q 353 884 353 1716 
Q 353 2575 817 3079 
Q 1281 3584 2069 3584 
Q 2775 3584 3186 3129 
Q 3597 2675 3597 1894 
z
M 3022 2063 
Q 3016 2534 2758 2815 
Q 2500 3097 2075 3097 
Q 1594 3097 1305 2825 
Q 1016 2553 972 2059 
L 3022 2063 
z
" transform="scale(0.015625)"/>
       <path id="DejaVuSans-72" d="M 2631 2963 
Q 2534 3019 2420 3045 
Q 2306 3072 2169 3072 
Q 1681 3072 1420 2755 
Q 1159 2438 1159 1844 
L 1159 0 
L 581 0 
L 581 3500 
L 1159 3500 
L 1159 2956 
Q 1341 3275 1631 3429 
Q 1922 3584 2338 3584 
Q 2397 3584 2469 3576 
Q 2541 3569 2628 3553 
L 2631 2963 
z
" transform="scale(0.015625)"/>
       <path id="DejaVuSans-20" transform="scale(0.015625)"/>
       <path id="DejaVuSans-6f" d="M 1959 3097 
Q 1497 3097 1228 2736 
Q 959 2375 959 1747 
Q 959 1119 1226 758 
Q 1494 397 1959 397 
Q 2419 397 2687 759 
Q 2956 1122 2956 1747 
Q 2956 2369 2687 2733 
Q 2419 3097 1959 3097 
z
M 1959 3584 
Q 2709 3584 3137 3096 
Q 3566 2609 3566 1747 
Q 3566 888 3137 398 
Q 2709 -91 1959 -91 
Q 1206 -91 779 398 
Q 353 888 353 1747 
Q 353 2609 779 3096 
Q 1206 3584 1959 3584 
z
" transform="scale(0.015625)"/>
       <path id="DejaVuSans-66" d="M 2375 4863 
L 2375 4384 
L 1825 4384 
Q 1516 4384 1395 4259 
Q 1275 4134 1275 3809 
L 1275 3500 
L 2222 3500 
L 2222 3053 
L 1275 3053 
L 1275 0 
L 697 0 
L 697 3053 
L 147 3053 
L 147 3500 
L 697 3500 
L 697 3744 
Q 697 4328 969 4595 
Q 1241 4863 1831 4863 
L 2375 4863 
z
" transform="scale(0.015625)"/>
       <path id="DejaVuSans-74" d="M 1172 4494 
L 1172 3500 
L 2356 3500 
L 2356 3053 
L 1172 3053 
L 1172 1153 
Q 1172 725 1289 603 
Q 1406 481 1766 481 
L 2356 481 
L 2356 0 
L 1766 0 
Q 1100 0 847 248 
Q 594 497 594 1153 
L 594 3053 
L 172 3053 
L 172 3500 
L 594 3500 
L 594 4494 
L 1172 4494 
z
" transform="scale(0.015625)"/>
       <path id="DejaVuSans-68" d="M 3513 2113 
L 3513 0 
L 2938 0 
L 2938 2094 
Q 2938 2591 2744 2837 
Q 2550 3084 2163 3084 
Q 1697 3084 1428 2787 
Q 1159 2491 1159 1978 
L 1159 0 
L 581 0 
L 581 4863 
L 1159 4863 
L 1159 2956 
Q 1366 3272 1645 3428 
Q 1925 3584 2291 3584 
Q 2894 3584 3203 3211 
Q 3513 2838 3513 2113 
z
" transform="scale(0.015625)"/>
       <path id="DejaVuSans-76" d="M 191 3500 
L 800 3500 
L 1894 563 
L 2988 3500 
L 3597 3500 
L 2284 0 
L 1503 0 
L 191 3500 
z
" transform="scale(0.015625)"/>
       <path id="DejaVuSans-73" d="M 2834 3397 
L 2834 2853 
Q 2591 2978 2328 3040 
Q 2066 3103 1784 3103 
Q 1356 3103 1142 2972 
Q 928 2841 928 2578 
Q 928 2378 1081 2264 
Q 1234 2150 1697 2047 
L 1894 2003 
Q 2506 1872 2764 1633 
Q 3022 1394 3022 966 
Q 3022 478 2636 193 
Q 2250 -91 1575 -91 
Q 1294 -91 989 -36 
Q 684 19 347 128 
L 347 722 
Q 666 556 975 473 
Q 1284 391 1588 391 
Q 1994 391 2212 530 
Q 2431 669 2431 922 
Q 2431 1156 2273 1281 
Q 2116 1406 1581 1522 
L 1381 1569 
Q 847 1681 609 1914 
Q 372 2147 372 2553 
Q 372 3047 722 3315 
Q 1072 3584 1716 3584 
Q 2034 3584 2315 3537 
Q 2597 3491 2834 3397 
z
" transform="scale(0.015625)"/>
       <path id="DejaVuSans-6c" d="M 603 4863 
L 1178 4863 
L 1178 0 
L 603 0 
L 603 4863 
z
" transform="scale(0.015625)"/>
       <path id="DejaVuSans-69" d="M 603 3500 
L 1178 3500 
L 1178 0 
L 603 0 
L 603 3500 
z
M 603 4863 
L 1178 4863 
L 1178 4134 
L 603 4134 
L 603 4863 
z
" transform="scale(0.015625)"/>
      </defs>
      <use xlink:href="#DejaVuSans-4e"/>
      <use xlink:href="#DejaVuSans-75" transform="translate(74.804688 0)"/>
      <use xlink:href="#DejaVuSans-6d" transform="translate(138.183594 0)"/>
      <use xlink:href="#DejaVuSans-62" transform="translate(235.595703 0)"/>
      <use xlink:href="#DejaVuSans-65" transform="translate(299.072266 0)"/>
      <use xlink:href="#DejaVuSans-72" transform="translate(360.595703 0)"/>
      <use xlink:href="#DejaVuSans-20" transform="translate(401.708984 0)"/>
      <use xlink:href="#DejaVuSans-6f" transform="translate(433.496094 0)"/>
      <use xlink:href="#DejaVuSans-66" transform="translate(494.677734 0)"/>
      <use xlink:href="#DejaVuSans-20" transform="translate(529.882812 0)"/>
      <use xlink:href="#DejaVuSans-6f" transform="translate(561.669922 0)"/>
      <use xlink:href="#DejaVuSans-74" transform="translate(622.851562 0)"/>
      <use xlink:href="#DejaVuSans-68" transform="translate(662.060547 0)"/>
      <use xlink:href="#DejaVuSans-65" transform="translate(725.439453 0)"/>
      <use xlink:href="#DejaVuSans-72" transform="translate(786.962891 0)"/>
      <use xlink:href="#DejaVuSans-20" transform="translate(828.076172 0)"/>
      <use xlink:href="#DejaVuSans-76" transform="translate(859.863281 0)"/>
      <use xlink:href="#DejaVuSans-65" transform="translate(919.042969 0)"/>
      <use xlink:href="#DejaVuSans-73" transform="translate(980.566406 0)"/>
      <use xlink:href="#DejaVuSans-73" transform="translate(1032.666016 0)"/>
      <use xlink:href="#DejaVuSans-65" transform="translate(1084.765625 0)"/>
      <use xlink:href="#DejaVuSans-6c" transform="translate(1146.289062 0)"/>
      <use xlink:href="#DejaVuSans-73" transform="translate(1174.072266 0)"/>
      <use xlink:href="#DejaVuSans-20" transform="translate(1226.171875 0)"/>
      <use xlink:href="#DejaVuSans-76" transform="translate(1257.958984 0)"/>
      <use xlink:href="#DejaVuSans-69" transform="translate(1317.138672 0)"/>
      <use xlink:href="#DejaVuSans-73" transform="translate(1344.921875 0)"/>
      <use xlink:href="#DejaVuSans-69" transform="translate(1397.021484 0)"/>
      <use xlink:href="#DejaVuSans-62" transform="translate(1424.804688 0)"/>
      <use xlink:href="#DejaVuSans-6c" transform="translate(1488.28125 0)"/>
      <use xlink:href="#DejaVuSans-65" transform="translate(1516.064453 0)"/>
      <use xlink:href="#DejaVuSans-20" transform="translate(1577.587891 0)"/>
      <use xlink:href="#DejaVuSans-66" transform="translate(1609.375 0)"/>
      <use xlink:href="#DejaVuSans-72" transform="translate(1644.580078 0)"/>
      <use xlink:href="#DejaVuSans-6f" transform="translate(1683.443359 0)"/>
      <use xlink:href="#DejaVuSans-6d" transform="translate(1744.625 0)"/>
      <use xlink:href="#DejaVuSans-20" transform="translate(1842.037109 0)"/>
      <use xlink:href="#DejaVuSans-74" transform="translate(1873.824219 0)"/>
      <use xlink:href="#DejaVuSans-68" transform="translate(1913.033203 0)"/>
      <use xlink:href="#DejaVuSans-65" transform="translate(1976.412109 0)"/>
      <use xlink:href="#DejaVuSans-20" transform="translate(2037.935547 0)"/>
      <use xlink:href="#DejaVuSans-76" transform="translate(2069.722656 0)"/>
      <use xlink:href="#DejaVuSans-65" transform="translate(2128.902344 0)"/>
      <use xlink:href="#DejaVuSans-73" transform="translate(2190.425781 0)"/>
      <use xlink:href="#DejaVuSans-73" transform="translate(2242.525391 0)"/>
      <use xlink:href="#DejaVuSans-65" transform="translate(2294.625 0)"/>
      <use xlink:href="#DejaVuSans-6c" transform="translate(2356.148438 0)"/>
     </g>
    </g>
   </g>
   <g id="matplotlib.axis_2">
    <g id="ytick_1">
     <g id="line2d_7">
      <defs>
       <path id="m83b8d38912" d="M 0 0 
L -3.5 0 
" style="stroke: #000000; stroke-width: 0.8"/>
      </defs>
      <g>
       <use xlink:href="#m83b8d38912" x="57.6" y="271.531672" style="stroke: #000000; stroke-width: 0.8"/>
      </g>
     </g>
     <g id="text_8">
      <!-- $\mathdefault{10^{3}}$ -->
      <g transform="translate(33 275.330891) scale(0.1 -0.1)">
       <defs>
        <path id="DejaVuSans-33" d="M 2597 2516 
Q 3050 2419 3304 2112 
Q 3559 1806 3559 1356 
Q 3559 666 3084 287 
Q 2609 -91 1734 -91 
Q 1441 -91 1130 -33 
Q 819 25 488 141 
L 488 750 
Q 750 597 1062 519 
Q 1375 441 1716 441 
Q 2309 441 2620 675 
Q 2931 909 2931 1356 
Q 2931 1769 2642 2001 
Q 2353 2234 1838 2234 
L 1294 2234 
L 1294 2753 
L 1863 2753 
Q 2328 2753 2575 2939 
Q 2822 3125 2822 3475 
Q 2822 3834 2567 4026 
Q 2313 4219 1838 4219 
Q 1578 4219 1281 4162 
Q 984 4106 628 3988 
L 628 4550 
Q 988 4650 1302 4700 
Q 1616 4750 1894 4750 
Q 2613 4750 3031 4423 
Q 3450 4097 3450 3541 
Q 3450 3153 3228 2886 
Q 3006 2619 2597 2516 
z
" transform="scale(0.015625)"/>
       </defs>
       <use xlink:href="#DejaVuSans-31" transform="translate(0 0.765625)"/>
       <use xlink:href="#DejaVuSans-30" transform="translate(63.623047 0.765625)"/>
       <use xlink:href="#DejaVuSans-33" transform="translate(128.203125 39.046875) scale(0.7)"/>
      </g>
     </g>
    </g>
    <g id="ytick_2">
     <g id="line2d_8">
      <g>
       <use xlink:href="#m83b8d38912" x="57.6" y="171.222202" style="stroke: #000000; stroke-width: 0.8"/>
      </g>
     </g>
     <g id="text_9">
      <!-- $\mathdefault{10^{4}}$ -->
      <g transform="translate(33 175.02142) scale(0.1 -0.1)">
       <use xlink:href="#DejaVuSans-31" transform="translate(0 0.684375)"/>
       <use xlink:href="#DejaVuSans-30" transform="translate(63.623047 0.684375)"/>
       <use xlink:href="#DejaVuSans-34" transform="translate(128.203125 38.965625) scale(0.7)"/>
      </g>
     </g>
    </g>
    <g id="ytick_3">
     <g id="line2d_9">
      <g>
       <use xlink:href="#m83b8d38912" x="57.6" y="70.912731" style="stroke: #000000; stroke-width: 0.8"/>
      </g>
     </g>
     <g id="text_10">
      <!-- $\mathdefault{10^{5}}$ -->
      <g transform="translate(33 74.71195) scale(0.1 -0.1)">
       <defs>
        <path id="DejaVuSans-35" d="M 691 4666 
L 3169 4666 
L 3169 4134 
L 1269 4134 
L 1269 2991 
Q 1406 3038 1543 3061 
Q 1681 3084 1819 3084 
Q 2600 3084 3056 2656 
Q 3513 2228 3513 1497 
Q 3513 744 3044 326 
Q 2575 -91 1722 -91 
Q 1428 -91 1123 -41 
Q 819 9 494 109 
L 494 744 
Q 775 591 1075 516 
Q 1375 441 1709 441 
Q 2250 441 2565 725 
Q 2881 1009 2881 1497 
Q 2881 1984 2565 2268 
Q 2250 2553 1709 2553 
Q 1456 2553 1204 2497 
Q 953 2441 691 2322 
L 691 4666 
z
" transform="scale(0.015625)"/>
       </defs>
       <use xlink:href="#DejaVuSans-31" transform="translate(0 0.684375)"/>
       <use xlink:href="#DejaVuSans-30" transform="translate(63.623047 0.684375)"/>
       <use xlink:href="#DejaVuSans-35" transform="translate(128.203125 38.965625) scale(0.7)"/>
      </g>
     </g>
    </g>
    <g id="ytick_4">
     <g id="line2d_10">
      <defs>
       <path id="m7677f69d20" d="M 0 0 
L -2 0 
" style="stroke: #000000; stroke-width: 0.6"/>
      </defs>
      <g>
       <use xlink:href="#m7677f69d20" x="57.6" y="301.727832" style="stroke: #000000; stroke-width: 0.6"/>
      </g>
     </g>
    </g>
    <g id="ytick_5">
     <g id="line2d_11">
      <g>
       <use xlink:href="#m7677f69d20" x="57.6" y="293.785203" style="stroke: #000000; stroke-width: 0.6"/>
      </g>
     </g>
    </g>
    <g id="ytick_6">
     <g id="line2d_12">
      <g>
       <use xlink:href="#m7677f69d20" x="57.6" y="287.069806" style="stroke: #000000; stroke-width: 0.6"/>
      </g>
     </g>
    </g>
    <g id="ytick_7">
     <g id="line2d_13">
      <g>
       <use xlink:href="#m7677f69d20" x="57.6" y="281.252664" style="stroke: #000000; stroke-width: 0.6"/>
      </g>
     </g>
    </g>
    <g id="ytick_8">
     <g id="line2d_14">
      <g>
       <use xlink:href="#m7677f69d20" x="57.6" y="276.121582" style="stroke: #000000; stroke-width: 0.6"/>
      </g>
     </g>
    </g>
    <g id="ytick_9">
     <g id="line2d_15">
      <g>
       <use xlink:href="#m7677f69d20" x="57.6" y="241.335513" style="stroke: #000000; stroke-width: 0.6"/>
      </g>
     </g>
    </g>
    <g id="ytick_10">
     <g id="line2d_16">
      <g>
       <use xlink:href="#m7677f69d20" x="57.6" y="223.671892" style="stroke: #000000; stroke-width: 0.6"/>
      </g>
     </g>
    </g>
    <g id="ytick_11">
     <g id="line2d_17">
      <g>
       <use xlink:href="#m7677f69d20" x="57.6" y="211.139353" style="stroke: #000000; stroke-width: 0.6"/>
      </g>
     </g>
    </g>
    <g id="ytick_12">
     <g id="line2d_18">
      <g>
       <use xlink:href="#m7677f69d20" x="57.6" y="201.418361" style="stroke: #000000; stroke-width: 0.6"/>
      </g>
     </g>
    </g>
    <g id="ytick_13">
     <g id="line2d_19">
      <g>
       <use xlink:href="#m7677f69d20" x="57.6" y="193.475732" style="stroke: #000000; stroke-width: 0.6"/>
      </g>
     </g>
    </g>
    <g id="ytick_14">
     <g id="line2d_20">
      <g>
       <use xlink:href="#m7677f69d20" x="57.6" y="186.760335" style="stroke: #000000; stroke-width: 0.6"/>
      </g>
     </g>
    </g>
    <g id="ytick_15">
     <g id="line2d_21">
      <g>
       <use xlink:href="#m7677f69d20" x="57.6" y="180.943194" style="stroke: #000000; stroke-width: 0.6"/>
      </g>
     </g>
    </g>
    <g id="ytick_16">
     <g id="line2d_22">
      <g>
       <use xlink:href="#m7677f69d20" x="57.6" y="175.812111" style="stroke: #000000; stroke-width: 0.6"/>
      </g>
     </g>
    </g>
    <g id="ytick_17">
     <g id="line2d_23">
      <g>
       <use xlink:href="#m7677f69d20" x="57.6" y="141.026042" style="stroke: #000000; stroke-width: 0.6"/>
      </g>
     </g>
    </g>
    <g id="ytick_18">
     <g id="line2d_24">
      <g>
       <use xlink:href="#m7677f69d20" x="57.6" y="123.362421" style="stroke: #000000; stroke-width: 0.6"/>
      </g>
     </g>
    </g>
    <g id="ytick_19">
     <g id="line2d_25">
      <g>
       <use xlink:href="#m7677f69d20" x="57.6" y="110.829883" style="stroke: #000000; stroke-width: 0.6"/>
      </g>
     </g>
    </g>
    <g id="ytick_20">
     <g id="line2d_26">
      <g>
       <use xlink:href="#m7677f69d20" x="57.6" y="101.108891" style="stroke: #000000; stroke-width: 0.6"/>
      </g>
     </g>
    </g>
    <g id="ytick_21">
     <g id="line2d_27">
      <g>
       <use xlink:href="#m7677f69d20" x="57.6" y="93.166262" style="stroke: #000000; stroke-width: 0.6"/>
      </g>
     </g>
    </g>
    <g id="ytick_22">
     <g id="line2d_28">
      <g>
       <use xlink:href="#m7677f69d20" x="57.6" y="86.450865" style="stroke: #000000; stroke-width: 0.6"/>
      </g>
     </g>
    </g>
    <g id="ytick_23">
     <g id="line2d_29">
      <g>
       <use xlink:href="#m7677f69d20" x="57.6" y="80.633723" style="stroke: #000000; stroke-width: 0.6"/>
      </g>
     </g>
    </g>
    <g id="ytick_24">
     <g id="line2d_30">
      <g>
       <use xlink:href="#m7677f69d20" x="57.6" y="75.502641" style="stroke: #000000; stroke-width: 0.6"/>
      </g>
     </g>
    </g>
    <g id="text_11">
     <!-- Number of vessels -->
     <g transform="translate(26.920312 220.927219) rotate(-90) scale(0.1 -0.1)">
      <use xlink:href="#DejaVuSans-4e"/>
      <use xlink:href="#DejaVuSans-75" transform="translate(74.804688 0)"/>
      <use xlink:href="#DejaVuSans-6d" transform="translate(138.183594 0)"/>
      <use xlink:href="#DejaVuSans-62" transform="translate(235.595703 0)"/>
      <use xlink:href="#DejaVuSans-65" transform="translate(299.072266 0)"/>
      <use xlink:href="#DejaVuSans-72" transform="translate(360.595703 0)"/>
      <use xlink:href="#DejaVuSans-20" transform="translate(401.708984 0)"/>
      <use xlink:href="#DejaVuSans-6f" transform="translate(433.496094 0)"/>
      <use xlink:href="#DejaVuSans-66" transform="translate(494.677734 0)"/>
      <use xlink:href="#DejaVuSans-20" transform="translate(529.882812 0)"/>
      <use xlink:href="#DejaVuSans-76" transform="translate(561.669922 0)"/>
      <use xlink:href="#DejaVuSans-65" transform="translate(620.849609 0)"/>
      <use xlink:href="#DejaVuSans-73" transform="translate(682.373047 0)"/>
      <use xlink:href="#DejaVuSans-73" transform="translate(734.472656 0)"/>
      <use xlink:href="#DejaVuSans-65" transform="translate(786.572266 0)"/>
      <use xlink:href="#DejaVuSans-6c" transform="translate(848.095703 0)"/>
      <use xlink:href="#DejaVuSans-73" transform="translate(875.878906 0)"/>
     </g>
    </g>
   </g>
   <g id="patch_103">
    <path d="M 57.6 307.584 
L 57.6 41.472 
" style="fill: none; stroke: #000000; stroke-width: 0.8; stroke-linejoin: miter; stroke-linecap: square"/>
   </g>
   <g id="patch_104">
    <path d="M 414.72 307.584 
L 414.72 41.472 
" style="fill: none; stroke: #000000; stroke-width: 0.8; stroke-linejoin: miter; stroke-linecap: square"/>
   </g>
   <g id="patch_105">
    <path d="M 57.6 307.584 
L 414.72 307.584 
" style="fill: none; stroke: #000000; stroke-width: 0.8; stroke-linejoin: miter; stroke-linecap: square"/>
   </g>
   <g id="patch_106">
    <path d="M 57.6 41.472 
L 414.72 41.472 
" style="fill: none; stroke: #000000; stroke-width: 0.8; stroke-linejoin: miter; stroke-linecap: square"/>
   </g>
  </g>
 </g>
 <defs>
  <clipPath id="pa591c58246">
   <rect x="57.6" y="41.472" width="357.12" height="266.112"/>
  </clipPath>
 </defs>
</svg>
